{
DisplayStrings = (
"'",
"`",
";",
",",
/slash,
$
);
date = "2012-08-21 05:40:05 +0000";
familyName = "silly83c";
fontMaster = (
{
ascender = 800;
capHeight = 700;
descender = "-200";
id = "85308D4F-3C98-4E4B-A926-E3A24A251B96";
weightValue = 80;
widthValue = 80;
xHeight = 500;
}
);
glyphs = (
{
glyphname = A;
lastChange = "2012-09-12 00:00:23 +0000";
layers = (
{
anchors = (
{
name = ogonek;
position = "{468, 10}";
},
{
name = top;
position = "{260, 700}";
}
);
guideLines = (
{
angle = 90;
position = "{50, 800}";
},
{
angle = 90;
position = "{470, 800}";
},
{
angle = 90;
position = "{260, 800}";
},
{
angle = 0;
position = "{10, 350}";
}
);
layerId = "85308D4F-3C98-4E4B-A926-E3A24A251B96";
name = Regular;
paths = (
{
closed = 1;
nodes = (
"260 560 LINE",
"320 300 LINE",
"200 300 LINE"
);
},
{
closed = 1;
nodes = (
"337 220 LINE",
"390 0 LINE",
"470 0 LINE",
"300 700 LINE",
"220 700 LINE",
"50 0 LINE",
"130 0 LINE",
"183 220 LINE"
);
}
);
width = 520;
}
);
unicode = 0041;
},
{
glyphname = B;
lastChange = "2012-08-27 23:22:38 +0000";
layers = (
{
guideLines = (
{
angle = 90;
position = "{50, 800}";
},
{
angle = 90;
position = "{470, 800}";
},
{
angle = 90;
position = "{260, 800}";
},
{
angle = 0;
position = "{10, 350}";
}
);
layerId = "85308D4F-3C98-4E4B-A926-E3A24A251B96";
name = Regular;
paths = (
{
closed = 0;
nodes = (
"200 310 LINE"
);
},
{
closed = 1;
nodes = (
"130 390 LINE",
"130 620 LINE",
"240 620 LINE",
"360 620 OFFCURVE",
"390 575 OFFCURVE",
"390 505 CURVE",
"390 435 OFFCURVE",
"320 390 OFFCURVE",
"200 390 CURVE"
);
},
{
closed = 1;
nodes = (
"130 80 LINE",
"130 310 LINE",
"200 310 LINE",
"320 310 OFFCURVE",
"390 265 OFFCURVE",
"390 195 CURVE",
"390 125 OFFCURVE",
"360 80 OFFCURVE",
"240 80 CURVE"
);
},
{
closed = 1;
nodes = (
"414 372 OFFCURVE",
"470 425 OFFCURVE",
"470 505 CURVE SMOOTH",
"470 634 OFFCURVE",
"395 700 OFFCURVE",
"240 700 CURVE",
"50 700 LINE",
"50 0 LINE",
"240 0 LINE",
"395 0 OFFCURVE",
"470 66 OFFCURVE",
"470 195 CURVE SMOOTH",
"470 275 OFFCURVE",
"418 328 OFFCURVE",
"370 350 CURVE"
);
},
{
closed = 0;
nodes = (
"200 390 LINE"
);
}
);
width = 520;
}
);
unicode = 0042;
},
{
glyphname = C;
lastChange = "2012-09-12 00:00:23 +0000";
layers = (
{
anchors = (
{
name = bottom;
position = "{260, 0}";
},
{
name = top;
position = "{260, 700}";
}
);
guideLines = (
{
angle = 90;
position = "{50, 800}";
},
{
angle = 90;
position = "{470, 800}";
},
{
angle = 90;
position = "{260, 800}";
},
{
angle = 0;
position = "{10, 350}";
}
);
layerId = "85308D4F-3C98-4E4B-A926-E3A24A251B96";
name = Regular;
paths = (
{
closed = 1;
nodes = (
"413 147 LINE",
"345 85 OFFCURVE",
"305 80 OFFCURVE",
"280 80 CURVE SMOOTH",
"175 80 OFFCURVE",
"130 200 OFFCURVE",
"130 350 CURVE SMOOTH",
"130 500 OFFCURVE",
"175 620 OFFCURVE",
"280 620 CURVE SMOOTH",
"305 620 OFFCURVE",
"345 615 OFFCURVE",
"413 553 CURVE",
"470 610 LINE",
"385 700 OFFCURVE",
"320 700 OFFCURVE",
"280 700 CURVE SMOOTH",
"115 700 OFFCURVE",
"50 549 OFFCURVE",
"50 350 CURVE SMOOTH",
"50 151 OFFCURVE",
"115 0 OFFCURVE",
"280 0 CURVE SMOOTH",
"320 0 OFFCURVE",
"385 0 OFFCURVE",
"470 90 CURVE"
);
}
);
width = 520;
}
);
unicode = 0043;
},
{
glyphname = D;
lastChange = "2012-09-12 00:00:23 +0000";
layers = (
{
anchors = (
{
name = center;
position = "{260, 350}";
},
{
name = top;
position = "{260, 700}";
}
);
guideLines = (
{
angle = 90;
position = "{50, 800}";
},
{
angle = 90;
position = "{470, 800}";
},
{
angle = 90;
position = "{260, 800}";
},
{
angle = 0;
position = "{10, 350}";
}
);
layerId = "85308D4F-3C98-4E4B-A926-E3A24A251B96";
name = Regular;
paths = (
{
closed = 1;
nodes = (
"390 120 OFFCURVE",
"260 80 OFFCURVE",
"210 80 CURVE",
"130 80 LINE",
"130 620 LINE",
"210 620 LINE",
"260 620 OFFCURVE",
"390 580 OFFCURVE",
"390 350 CURVE"
);
},
{
closed = 1;
nodes = (
"470 580 OFFCURVE",
"355 700 OFFCURVE",
"200 700 CURVE",
"50 700 LINE",
"50 0 LINE",
"200 0 LINE",
"355 0 OFFCURVE",
"470 121 OFFCURVE",
"470 350 CURVE SMOOTH"
);
}
);
width = 520;
}
);
unicode = 0044;
},
{
glyphname = E;
lastChange = "2012-09-12 00:00:23 +0000";
layers = (
{
anchors = (
{
name = bottom;
position = "{260, 0}";
},
{
name = ogonek;
position = "{468, 10}";
},
{
name = top;
position = "{260, 700}";
}
);
guideLines = (
{
angle = 90;
position = "{50, 800}";
},
{
angle = 90;
position = "{470, 800}";
},
{
angle = 90;
position = "{260, 800}";
},
{
angle = 0;
position = "{10, 350}";
}
);
layerId = "85308D4F-3C98-4E4B-A926-E3A24A251B96";
name = Regular;
paths = (
{
closed = 1;
nodes = (
"50 0 LINE",
"470 0 LINE",
"470 80 LINE",
"130 80 LINE",
"130 310 LINE",
"350 310 LINE",
"350 390 LINE",
"130 390 LINE",
"130 620 LINE",
"470 620 LINE",
"470 700 LINE",
"50 700 LINE"
);
}
);
width = 520;
}
);
unicode = 0045;
},
{
glyphname = F;
lastChange = "2012-08-27 23:22:38 +0000";
layers = (
{
layerId = "85308D4F-3C98-4E4B-A926-E3A24A251B96";
name = Regular;
paths = (
{
closed = 1;
nodes = (
"50 0 LINE",
"130 0 LINE",
"130 310 LINE",
"350 310 LINE",
"350 390 LINE",
"130 390 LINE",
"130 620 LINE",
"470 620 LINE",
"470 700 LINE",
"50 700 LINE"
);
}
);
width = 520;
}
);
unicode = 0046;
},
{
glyphname = G;
lastChange = "2012-09-12 00:00:23 +0000";
layers = (
{
anchors = (
{
name = bottom;
position = "{260, 0}";
},
{
name = top;
position = "{260, 700}";
}
);
guideLines = (
{
angle = 90;
position = "{50, 800}";
},
{
angle = 90;
position = "{470, 800}";
},
{
angle = 90;
position = "{260, 800}";
},
{
angle = 0;
position = "{10, 350}";
}
);
layerId = "85308D4F-3C98-4E4B-A926-E3A24A251B96";
name = Regular;
paths = (
{
closed = 1;
nodes = (
"260 390 LINE",
"260 310 LINE",
"390 310 LINE",
"390 160 OFFCURVE",
"365 80 OFFCURVE",
"260 80 CURVE SMOOTH",
"155 80 OFFCURVE",
"130 160 OFFCURVE",
"130 350 CURVE SMOOTH",
"130 500 OFFCURVE",
"155 620 OFFCURVE",
"260 620 CURVE SMOOTH",
"285 620 OFFCURVE",
"325 615 OFFCURVE",
"393 553 CURVE",
"450 610 LINE",
"365 700 OFFCURVE",
"300 700 OFFCURVE",
"260 700 CURVE SMOOTH",
"95 700 OFFCURVE",
"50 549 OFFCURVE",
"50 350 CURVE SMOOTH",
"50 141 OFFCURVE",
"95 0 OFFCURVE",
"260 0 CURVE SMOOTH",
"425 0 OFFCURVE",
"470 141 OFFCURVE",
"470 310 CURVE",
"470 390 LINE"
);
}
);
width = 520;
}
);
unicode = 0047;
},
{
glyphname = H;
lastChange = "2012-09-12 00:00:23 +0000";
layers = (
{
anchors = (
{
name = center;
position = "{260, 350}";
},
{
name = top;
position = "{260, 700}";
}
);
guideLines = (
{
angle = 90;
position = "{50, 800}";
},
{
angle = 90;
position = "{470, 800}";
},
{
angle = 90;
position = "{260, 800}";
},
{
angle = 0;
position = "{10, 350}";
}
);
layerId = "85308D4F-3C98-4E4B-A926-E3A24A251B96";
name = Regular;
paths = (
{
closed = 1;
nodes = (
"50 0 LINE",
"130 0 LINE",
"130 310 LINE",
"390 310 LINE",
"390 0 LINE",
"470 0 LINE",
"470 700 LINE",
"390 700 LINE",
"390 390 LINE",
"130 390 LINE",
"130 700 LINE",
"50 700 LINE"
);
}
);
width = 520;
}
);
unicode = 0048;
},
{
glyphname = I;
lastChange = "2012-09-12 00:00:23 +0000";
layers = (
{
anchors = (
{
name = ogonek;
position = "{468, 10}";
},
{
name = top;
position = "{260, 700}";
}
);
guideLines = (
{
angle = 90;
position = "{260, 800}";
},
{
angle = 90;
position = "{470, 800}";
},
{
angle = 90;
position = "{50, 800}";
}
);
layerId = "85308D4F-3C98-4E4B-A926-E3A24A251B96";
name = Regular;
paths = (
{
closed = 1;
nodes = (
"110 620 LINE",
"220 620 LINE",
"220 80 LINE",
"110 80 LINE",
"110 0 LINE",
"410 0 LINE",
"410 80 LINE",
"300 80 LINE",
"300 620 LINE",
"410 620 LINE",
"410 700 LINE",
"110 700 LINE"
);
}
);
width = 520;
}
);
unicode = 0049;
},
{
glyphname = J;
lastChange = "2012-09-12 00:00:23 +0000";
layers = (
{
anchors = (
{
name = top;
position = "{260, 700}";
}
);
guideLines = (
{
angle = 90;
position = "{50, 800}";
},
{
angle = 90;
position = "{470, 800}";
},
{
angle = 90;
position = "{260, 800}";
},
{
angle = 0;
position = "{10, 350}";
}
);
layerId = "85308D4F-3C98-4E4B-A926-E3A24A251B96";
name = Regular;
paths = (
{
closed = 1;
nodes = (
"390 0 OFFCURVE",
"470 105 OFFCURVE",
"470 280 CURVE",
"470 700 LINE",
"390 700 LINE",
"390 280 LINE",
"390 125 OFFCURVE",
"305 80 OFFCURVE",
"240 80 CURVE",
"199 80 OFFCURVE",
"138 101 OFFCURVE",
"102 138 CURVE",
"50 81 LINE",
"97 33 OFFCURVE",
"159 0 OFFCURVE",
"240 0 CURVE"
);
}
);
width = 520;
}
);
unicode = 004A;
},
{
glyphname = K;
lastChange = "2012-09-12 00:00:23 +0000";
layers = (
{
anchors = (
{
name = bottom;
position = "{260, 0}";
},
{
name = top;
position = "{260, 700}";
}
);
guideLines = (
{
angle = 90;
position = "{50, 800}";
},
{
angle = 90;
position = "{470, 800}";
},
{
angle = 90;
position = "{260, 800}";
},
{
angle = 0;
position = "{10, 350}";
}
);
layerId = "85308D4F-3C98-4E4B-A926-E3A24A251B96";
name = Regular;
paths = (
{
closed = 1;
nodes = (
"50 0 LINE",
"130 0 LINE",
"130 290 LINE",
"380 0 LINE",
"470 0 LINE",
"180 350 LINE",
"470 700 LINE",
"380 700 LINE",
"130 410 LINE",
"130 700 LINE",
"50 700 LINE"
);
}
);
width = 520;
}
);
unicode = 004B;
},
{
glyphname = L;
lastChange = "2012-09-12 00:00:23 +0000";
layers = (
{
anchors = (
{
name = bottom;
position = "{260, 0}";
},
{
name = top;
position = "{260, 700}";
}
);
layerId = "85308D4F-3C98-4E4B-A926-E3A24A251B96";
name = Regular;
paths = (
{
closed = 1;
nodes = (
"50 0 LINE",
"470 0 LINE",
"470 80 LINE",
"130 80 LINE",
"130 700 LINE",
"50 700 LINE"
);
}
);
width = 520;
}
);
unicode = 004C;
},
{
glyphname = M;
lastChange = "2012-08-27 23:22:57 +0000";
layers = (
{
guideLines = (
{
angle = 90;
position = "{50, 800}";
},
{
angle = 90;
position = "{470, 800}";
},
{
angle = 90;
position = "{260, 800}";
},
{
angle = 0;
position = "{10, 350}";
}
);
layerId = "85308D4F-3C98-4E4B-A926-E3A24A251B96";
name = Regular;
paths = (
{
closed = 1;
nodes = (
"130 0 LINE",
"130 420 LINE",
"220 130 LINE",
"300 130 LINE",
"390 420 LINE",
"390 0 LINE",
"470 0 LINE",
"470 700 LINE",
"390 700 LINE",
"260 280 LINE",
"130 700 LINE",
"50 700 LINE",
"50 0 LINE"
);
}
);
width = 520;
}
);
unicode = 004D;
},
{
glyphname = N;
lastChange = "2012-09-12 00:00:23 +0000";
layers = (
{
anchors = (
{
name = bottom;
position = "{260, 0}";
},
{
name = top;
position = "{260, 700}";
}
);
layerId = "85308D4F-3C98-4E4B-A926-E3A24A251B96";
name = Regular;
paths = (
{
closed = 1;
nodes = (
"130 0 LINE",
"130 520 LINE",
"390 0 LINE",
"470 0 LINE",
"470 700 LINE",
"390 700 LINE",
"390 180 LINE",
"130 700 LINE",
"50 700 LINE",
"50 0 LINE"
);
}
);
width = 520;
}
);
unicode = 004E;
},
{
glyphname = O;
lastChange = "2012-09-12 00:00:23 +0000";
layers = (
{
anchors = (
{
name = top;
position = "{260, 700}";
}
);
guideLines = (
{
angle = 90;
position = "{50, 800}";
},
{
angle = 90;
position = "{470, 800}";
},
{
angle = 90;
position = "{260, 800}";
},
{
angle = 0;
position = "{-40, 350}";
}
);
layerId = "85308D4F-3C98-4E4B-A926-E3A24A251B96";
name = Regular;
paths = (
{
closed = 1;
nodes = (
"380 0 OFFCURVE",
"485 110 OFFCURVE",
"485 350 CURVE SMOOTH",
"485 590 OFFCURVE",
"380 700 OFFCURVE",
"260 700 CURVE SMOOTH",
"140 700 OFFCURVE",
"35 590 OFFCURVE",
"35 350 CURVE SMOOTH",
"35 110 OFFCURVE",
"140 0 OFFCURVE",
"260 0 CURVE SMOOTH"
);
},
{
closed = 1;
nodes = (
"180 80 OFFCURVE",
"115 190 OFFCURVE",
"115 350 CURVE SMOOTH",
"115 510 OFFCURVE",
"180 620 OFFCURVE",
"260 620 CURVE SMOOTH",
"340 620 OFFCURVE",
"405 510 OFFCURVE",
"405 350 CURVE SMOOTH",
"405 190 OFFCURVE",
"340 80 OFFCURVE",
"260 80 CURVE SMOOTH"
);
}
);
width = 520;
}
);
unicode = 004F;
},
{
glyphname = P;
lastChange = "2012-08-27 23:23:12 +0000";
layers = (
{
layerId = "85308D4F-3C98-4E4B-A926-E3A24A251B96";
name = Regular;
paths = (
{
closed = 1;
nodes = (
"130 390 LINE",
"130 620 LINE",
"240 620 LINE",
"360 620 OFFCURVE",
"390 570 OFFCURVE",
"390 500 CURVE",
"390 430 OFFCURVE",
"360 390 OFFCURVE",
"200 390 CURVE"
);
},
{
closed = 1;
nodes = (
"200 310 LINE",
"395 311 OFFCURVE",
"470 370 OFFCURVE",
"470 500 CURVE SMOOTH",
"470 630 OFFCURVE",
"395 700 OFFCURVE",
"240 700 CURVE",
"50 700 LINE",
"50 0 LINE",
"130 0 LINE",
"130 310 LINE"
);
},
{
closed = 0;
nodes = (
"200 390 LINE"
);
}
);
width = 520;
}
);
unicode = 0050;
},
{
glyphname = Q;
lastChange = "2012-08-27 23:23:35 +0000";
layers = (
{
guideLines = (
{
angle = 90;
position = "{50, 800}";
},
{
angle = 90;
position = "{470, 800}";
},
{
angle = 90;
position = "{260, 800}";
},
{
angle = 0;
position = "{10, 350}";
}
);
layerId = "85308D4F-3C98-4E4B-A926-E3A24A251B96";
name = Regular;
paths = (
{
closed = 1;
nodes = (
"348 16 OFFCURVE",
"305 0 OFFCURVE",
"260 0 CURVE SMOOTH",
"140 0 OFFCURVE",
"35 110 OFFCURVE",
"35 350 CURVE SMOOTH",
"35 590 OFFCURVE",
"140 700 OFFCURVE",
"260 700 CURVE SMOOTH",
"380 700 OFFCURVE",
"485 590 OFFCURVE",
"485 350 CURVE SMOOTH",
"485 247 OFFCURVE",
"466 168 OFFCURVE",
"434 112 CURVE",
"502 30 LINE",
"442 -20 LINE",
"384 48 LINE"
);
},
{
closed = 1;
nodes = (
"250 210 LINE",
"310 260 LINE",
"375 182 LINE",
"394 227 OFFCURVE",
"405 284 OFFCURVE",
"405 350 CURVE SMOOTH",
"405 510 OFFCURVE",
"340 620 OFFCURVE",
"260 620 CURVE SMOOTH",
"180 620 OFFCURVE",
"115 510 OFFCURVE",
"115 350 CURVE SMOOTH",
"115 190 OFFCURVE",
"180 80 OFFCURVE",
"260 80 CURVE SMOOTH",
"286 80 OFFCURVE",
"310 92 OFFCURVE",
"332 113 CURVE"
);
}
);
width = 520;
}
);
unicode = 0051;
},
{
glyphname = R;
lastChange = "2012-09-12 00:00:23 +0000";
layers = (
{
anchors = (
{
name = bottom;
position = "{260, 0}";
},
{
name = top;
position = "{260, 700}";
}
);
guideLines = (
{
angle = 90;
position = "{50, 800}";
},
{
angle = 90;
position = "{470, 800}";
},
{
angle = 90;
position = "{260, 800}";
},
{
angle = 0;
position = "{10, 350}";
}
);
layerId = "85308D4F-3C98-4E4B-A926-E3A24A251B96";
name = Regular;
paths = (
{
closed = 1;
nodes = (
"130 390 LINE",
"130 620 LINE",
"240 620 LINE",
"360 620 OFFCURVE",
"390 570 OFFCURVE",
"390 500 CURVE",
"390 430 OFFCURVE",
"360 390 OFFCURVE",
"200 390 CURVE"
);
},
{
closed = 1;
nodes = (
"330 323 LINE",
"360 324 OFFCURVE",
"470 370 OFFCURVE",
"470 500 CURVE SMOOTH",
"470 630 OFFCURVE",
"395 700 OFFCURVE",
"240 700 CURVE",
"50 700 LINE",
"50 0 LINE",
"130 0 LINE",
"130 310 LINE",
"250 310 LINE",
"380 0 LINE",
"470 0 LINE"
);
},
{
closed = 0;
nodes = (
"200 390 LINE"
);
}
);
width = 520;
}
);
unicode = 0052;
},
{
glyphname = S;
lastChange = "2012-09-12 00:00:23 +0000";
layers = (
{
anchors = (
{
name = bottom;
position = "{260, 0}";
},
{
name = top;
position = "{260, 700}";
}
);
guideLines = (
{
angle = 90;
position = "{50, 800}";
},
{
angle = 90;
position = "{470, 800}";
},
{
angle = 90;
position = "{260, 800}";
},
{
angle = 0;
position = "{10, 350}";
}
);
layerId = "85308D4F-3C98-4E4B-A926-E3A24A251B96";
name = Regular;
paths = (
{
closed = 1;
nodes = (
"390 260 OFFCURVE",
"370 310 OFFCURVE",
"260 310 CURVE SMOOTH",
"150 310 OFFCURVE",
"50 360 OFFCURVE",
"50 505 CURVE",
"50 650 OFFCURVE",
"195 700 OFFCURVE",
"260 700 CURVE SMOOTH",
"300 700 OFFCURVE",
"375 700 OFFCURVE",
"470 610 CURVE",
"413 553 LINE",
"345 615 OFFCURVE",
"285 620 OFFCURVE",
"260 620 CURVE SMOOTH",
"205 620 OFFCURVE",
"130 575 OFFCURVE",
"130 505 CURVE SMOOTH",
"130 440 OFFCURVE",
"150 390 OFFCURVE",
"260 390 CURVE SMOOTH",
"370 390 OFFCURVE",
"470 340 OFFCURVE",
"470 195 CURVE",
"470 52 OFFCURVE",
"335 0 OFFCURVE",
"260 0 CURVE SMOOTH",
"220 0 OFFCURVE",
"145 0 OFFCURVE",
"50 90 CURVE",
"107 147 LINE",
"175 85 OFFCURVE",
"235 80 OFFCURVE",
"260 80 CURVE SMOOTH",
"322 80 OFFCURVE",
"390 125 OFFCURVE",
"390 195 CURVE"
);
}
);
width = 520;
}
);
unicode = 0053;
},
{
glyphname = T;
lastChange = "2012-09-12 00:00:23 +0000";
layers = (
{
anchors = (
{
name = bottom;
position = "{260, 0}";
},
{
name = center;
position = "{260, 350}";
},
{
name = top;
position = "{260, 700}";
}
);
guideLines = (
{
angle = 90;
position = "{50, 800}";
},
{
angle = 90;
position = "{470, 800}";
},
{
angle = 90;
position = "{260, 800}";
},
{
angle = 0;
position = "{10, 350}";
}
);
layerId = "85308D4F-3C98-4E4B-A926-E3A24A251B96";
name = Regular;
paths = (
{
closed = 1;
nodes = (
"50 620 LINE",
"220 620 LINE",
"220 0 LINE",
"300 0 LINE",
"300 620 LINE",
"470 620 LINE",
"470 700 LINE",
"50 700 LINE"
);
}
);
width = 520;
}
);
unicode = 0054;
},
{
glyphname = U;
lastChange = "2012-09-12 00:00:23 +0000";
layers = (
{
anchors = (
{
name = ogonek;
position = "{468, 10}";
},
{
name = top;
position = "{260, 700}";
}
);
guideLines = (
{
angle = 90;
position = "{50, 800}";
},
{
angle = 90;
position = "{470, 800}";
},
{
angle = 90;
position = "{260, 800}";
},
{
angle = 0;
position = "{10, 350}";
}
);
layerId = "85308D4F-3C98-4E4B-A926-E3A24A251B96";
name = Regular;
paths = (
{
closed = 1;
nodes = (
"410 0 OFFCURVE",
"470 125 OFFCURVE",
"470 280 CURVE",
"470 700 LINE",
"390 700 LINE",
"390 280 LINE",
"390 135 OFFCURVE",
"325 80 OFFCURVE",
"260 80 CURVE",
"195 80 OFFCURVE",
"130 125 OFFCURVE",
"130 280 CURVE",
"130 700 LINE",
"50 700 LINE",
"50 280 LINE",
"50 115 OFFCURVE",
"110 0 OFFCURVE",
"260 0 CURVE"
);
}
);
width = 520;
}
);
unicode = 0055;
},
{
glyphname = V;
lastChange = "2012-08-27 23:23:51 +0000";
layers = (
{
layerId = "85308D4F-3C98-4E4B-A926-E3A24A251B96";
name = Regular;
paths = (
{
closed = 1;
nodes = (
"220 0 LINE",
"300 0 LINE",
"470 700 LINE",
"390 700 LINE",
"260 140 LINE",
"130 700 LINE",
"50 700 LINE"
);
}
);
width = 520;
}
);
unicode = 0056;
},
{
glyphname = W;
lastChange = "2012-09-12 00:00:23 +0000";
layers = (
{
anchors = (
{
name = top;
position = "{260, 700}";
}
);
guideLines = (
{
angle = 90;
position = "{50, 800}";
},
{
angle = 90;
position = "{470, 800}";
},
{
angle = 90;
position = "{260, 800}";
},
{
angle = 0;
position = "{10, 350}";
}
);
layerId = "85308D4F-3C98-4E4B-A926-E3A24A251B96";
name = Regular;
paths = (
{
closed = 1;
nodes = (
"105 0 LINE",
"185 0 LINE",
"260 440 LINE",
"335 0 LINE",
"415 0 LINE",
"490 700 LINE",
"410 700 LINE",
"365 260 LINE",
"300 700 LINE",
"220 700 LINE",
"155 260 LINE",
"110 700 LINE",
"30 700 LINE"
);
}
);
width = 520;
}
);
unicode = 0057;
},
{
glyphname = X;
lastChange = "2012-08-27 23:24:07 +0000";
layers = (
{
guideLines = (
{
angle = 90;
position = "{50, 800}";
},
{
angle = 90;
position = "{470, 800}";
},
{
angle = 90;
position = "{260, 800}";
},
{
angle = 0;
position = "{10, 350}";
}
);
layerId = "85308D4F-3C98-4E4B-A926-E3A24A251B96";
name = Regular;
paths = (
{
closed = 1;
nodes = (
"140 700 LINE",
"260 430 LINE",
"380 700 LINE",
"470 700 LINE",
"310 350 LINE",
"470 0 LINE",
"380 0 LINE",
"260 270 LINE",
"140 0 LINE",
"50 0 LINE",
"210 350 LINE",
"50 700 LINE"
);
}
);
width = 520;
}
);
unicode = 0058;
},
{
glyphname = Y;
lastChange = "2012-09-12 00:00:23 +0000";
layers = (
{
anchors = (
{
name = top;
position = "{260, 700}";
}
);
guideLines = (
{
angle = 90;
position = "{50, 800}";
},
{
angle = 90;
position = "{470, 800}";
},
{
angle = 90;
position = "{260, 800}";
},
{
angle = 0;
position = "{10, 350}";
}
);
layerId = "85308D4F-3C98-4E4B-A926-E3A24A251B96";
name = Regular;
paths = (
{
closed = 1;
nodes = (
"220 320 LINE",
"220 0 LINE",
"300 0 LINE",
"300 320 LINE",
"470 700 LINE",
"390 700 LINE",
"260 420 LINE",
"130 700 LINE",
"50 700 LINE"
);
}
);
width = 520;
}
);
unicode = 0059;
},
{
glyphname = Z;
lastChange = "2012-09-12 00:00:23 +0000";
layers = (
{
anchors = (
{
name = top;
position = "{260, 700}";
}
);
guideLines = (
{
angle = 90;
position = "{50, 800}";
},
{
angle = 90;
position = "{470, 800}";
},
{
angle = 90;
position = "{260, 800}";
},
{
angle = 0;
position = "{10, 350}";
}
);
layerId = "85308D4F-3C98-4E4B-A926-E3A24A251B96";
name = Regular;
paths = (
{
closed = 1;
nodes = (
"50 620 LINE",
"380 620 LINE",
"50 80 LINE",
"50 0 LINE",
"470 0 LINE",
"470 80 LINE",
"140 80 LINE",
"470 619 LINE",
"470 700 LINE",
"50 700 LINE"
);
}
);
width = 520;
}
);
unicode = 005A;
},
{
glyphname = a;
lastChange = "2012-09-12 00:00:23 +0000";
layers = (
{
anchors = (
{
name = ogonek;
position = "{468, 10}";
},
{
name = top;
position = "{260, 500}";
}
);
background = {
paths = (
{
closed = 1;
nodes = (
"702 563 LINE",
"641 563 LINE SMOOTH",
"426 563 OFFCURVE",
"317 487 OFFCURVE",
"317 338 CURVE SMOOTH",
"317 203 OFFCURVE",
"403 125 OFFCURVE",
"547 125 CURVE SMOOTH",
"750 125 OFFCURVE",
"873 274 OFFCURVE",
"874 522 CURVE SMOOTH",
"874 563 LINE"
);
},
{
closed = 1;
nodes = (
"1059 0 LINE",
"874 0 LINE",
"874 166 LINE",
"795 33 OFFCURVE",
"679 -29 OFFCURVE",
"508 -29 CURVE SMOOTH",
"280 -29 OFFCURVE",
"133 110 OFFCURVE",
"133 326 CURVE SMOOTH",
"133 575 OFFCURVE",
"303 707 OFFCURVE",
"627 707 CURVE SMOOTH",
"874 707 LINE",
"874 736 LINE",
"873 915 OFFCURVE",
"788 991 OFFCURVE",
"592 991 CURVE SMOOTH",
"467 991 OFFCURVE",
"336 954 OFFCURVE",
"215 885 CURVE",
"215 1069 LINE",
"351 1121 OFFCURVE",
"475 1147 OFFCURVE",
"592 1147 CURVE SMOOTH",
"777 1147 OFFCURVE",
"908 1092 OFFCURVE",
"989 983 CURVE SMOOTH",
"1040 916 OFFCURVE",
"1059 835 OFFCURVE",
"1059 639 CURVE SMOOTH"
);
}
);
};
guideLines = (
{
angle = 90;
position = "{260, 800}";
},
{
angle = 0;
position = "{-40, 250}";
},
{
angle = 90;
position = "{50, 800}";
},
{
angle = 90;
position = "{470, 800}";
},
{
angle = 0;
position = "{-40, 250}";
},
{
angle = 90;
position = "{260, 800}";
}
);
layerId = "85308D4F-3C98-4E4B-A926-E3A24A251B96";
name = Regular;
paths = (
{
closed = 1;
nodes = (
"390 0 LINE",
"470 0 LINE",
"470 346 LINE SMOOTH",
"470 425 OFFCURVE",
"415 500 OFFCURVE",
"279 500 CURVE",
"217 500 OFFCURVE",
"140 484 OFFCURVE",
"81 436 CURVE",
"126 368 LINE",
"246 449 OFFCURVE",
"390 420 OFFCURVE",
"390 338 CURVE",
"390 274 LINE",
"390 274 OFFCURVE",
"376 310 OFFCURVE",
"260 310 CURVE SMOOTH",
"133 310 OFFCURVE",
"50 230 OFFCURVE",
"50 145 CURVE SMOOTH",
"50 59 OFFCURVE",
"143 -10 OFFCURVE",
"260 -10 CURVE SMOOTH",
"376 -10 OFFCURVE",
"390 17 OFFCURVE",
"390 17 CURVE"
);
},
{
closed = 1;
nodes = (
"181 70 OFFCURVE",
"130 103 OFFCURVE",
"130 150 CURVE SMOOTH",
"130 196 OFFCURVE",
"181 230 OFFCURVE",
"260 230 CURVE SMOOTH",
"339 230 OFFCURVE",
"390 196 OFFCURVE",
"390 150 CURVE SMOOTH",
"390 103 OFFCURVE",
"339 70 OFFCURVE",
"260 70 CURVE SMOOTH"
);
}
);
width = 520;
}
);
unicode = 0061;
},
{
glyphname = b;
lastChange = "2012-08-27 23:24:07 +0000";
layers = (
{
guideLines = (
{
angle = 90;
position = "{50, 800}";
},
{
angle = 90;
position = "{470, 800}";
},
{
angle = 90;
position = "{260, 800}";
},
{
angle = 0;
position = "{10, 250}";
}
);
layerId = "85308D4F-3C98-4E4B-A926-E3A24A251B96";
name = Regular;
paths = (
{
closed = 0;
nodes = (
"50 250 LINE"
);
},
{
closed = 1;
nodes = (
"190 80 OFFCURVE",
"130 150 OFFCURVE",
"130 250 CURVE SMOOTH",
"130 350 OFFCURVE",
"190 420 OFFCURVE",
"260 420 CURVE SMOOTH",
"330 420 OFFCURVE",
"390 350 OFFCURVE",
"390 250 CURVE",
"390 150 OFFCURVE",
"330 80 OFFCURVE",
"260 80 CURVE SMOOTH"
);
},
{
closed = 1;
nodes = (
"165 12 OFFCURVE",
"207 0 OFFCURVE",
"260 0 CURVE SMOOTH",
"384 0 OFFCURVE",
"470 101 OFFCURVE",
"470 250 CURVE SMOOTH",
"470 399 OFFCURVE",
"384 500 OFFCURVE",
"260 500 CURVE SMOOTH",
"209 500 OFFCURVE",
"164 483 OFFCURVE",
"130 452 CURVE",
"130 700 LINE",
"50 700 LINE",
"50 0 LINE",
"130 0 LINE",
"130 45 LINE"
);
}
);
width = 520;
}
);
unicode = 0062;
},
{
glyphname = c;
lastChange = "2012-09-12 00:00:23 +0000";
layers = (
{
anchors = (
{
name = bottom;
position = "{260, 0}";
},
{
name = top;
position = "{260, 500}";
}
);
guideLines = (
{
angle = 90;
position = "{260, 800}";
},
{
angle = 0;
position = "{-40, 250}";
},
{
angle = 90;
position = "{50, 800}";
},
{
angle = 90;
position = "{470, 800}";
}
);
layerId = "85308D4F-3C98-4E4B-A926-E3A24A251B96";
name = Regular;
paths = (
{
closed = 1;
nodes = (
"413 147 LINE",
"345 85 OFFCURVE",
"305 80 OFFCURVE",
"280 80 CURVE SMOOTH",
"215 80 OFFCURVE",
"130 150 OFFCURVE",
"130 250 CURVE SMOOTH",
"130 350 OFFCURVE",
"215 420 OFFCURVE",
"280 420 CURVE SMOOTH",
"305 420 OFFCURVE",
"345 415 OFFCURVE",
"413 353 CURVE",
"470 410 LINE",
"385 500 OFFCURVE",
"320 500 OFFCURVE",
"280 500 CURVE SMOOTH",
"155 500 OFFCURVE",
"50 399 OFFCURVE",
"50 250 CURVE SMOOTH",
"50 101 OFFCURVE",
"155 0 OFFCURVE",
"280 0 CURVE SMOOTH",
"320 0 OFFCURVE",
"385 0 OFFCURVE",
"470 90 CURVE"
);
}
);
width = 520;
}
);
unicode = 0063;
},
{
glyphname = d;
lastChange = "2012-09-12 00:00:23 +0000";
layers = (
{
anchors = (
{
name = center;
position = "{260, 250}";
}
);
layerId = "85308D4F-3C98-4E4B-A926-E3A24A251B96";
name = Regular;
paths = (
{
closed = 0;
nodes = (
"470 250 LINE"
);
},
{
closed = 1;
nodes = (
"190 80 OFFCURVE",
"130 150 OFFCURVE",
"130 250 CURVE",
"130 350 OFFCURVE",
"190 420 OFFCURVE",
"260 420 CURVE SMOOTH",
"330 420 OFFCURVE",
"390 350 OFFCURVE",
"390 250 CURVE SMOOTH",
"390 150 OFFCURVE",
"330 80 OFFCURVE",
"260 80 CURVE SMOOTH"
);
},
{
closed = 1;
nodes = (
"390 0 LINE",
"470 0 LINE",
"470 700 LINE",
"390 700 LINE",
"390 452 LINE",
"356 483 OFFCURVE",
"311 500 OFFCURVE",
"260 500 CURVE SMOOTH",
"136 500 OFFCURVE",
"50 399 OFFCURVE",
"50 250 CURVE SMOOTH",
"50 101 OFFCURVE",
"136 0 OFFCURVE",
"260 0 CURVE SMOOTH",
"313 0 OFFCURVE",
"355 12 OFFCURVE",
"390 45 CURVE"
);
}
);
width = 520;
}
);
unicode = 0064;
},
{
glyphname = e;
lastChange = "2012-09-12 00:00:23 +0000";
layers = (
{
anchors = (
{
name = bottom;
position = "{260, 0}";
},
{
name = ogonek;
position = "{468, 10}";
},
{
name = top;
position = "{260, 500}";
}
);
guideLines = (
{
angle = 90;
position = "{50, 800}";
},
{
angle = 90;
position = "{470, 800}";
},
{
angle = 90;
position = "{260, 800}";
},
{
angle = 0;
position = "{10, 250}";
}
);
layerId = "85308D4F-3C98-4E4B-A926-E3A24A251B96";
name = Regular;
paths = (
{
closed = 1;
nodes = (
"141 376 OFFCURVE",
"190 420 OFFCURVE",
"260 420 CURVE SMOOTH",
"330 420 OFFCURVE",
"380 380 OFFCURVE",
"387 310 CURVE",
"132 310 LINE"
);
},
{
closed = 1;
nodes = (
"473 230 LINE",
"474 230 OFFCURVE",
"474 235 OFFCURVE",
"475 250 CURVE",
"475 399 OFFCURVE",
"385 500 OFFCURVE",
"260 500 CURVE SMOOTH",
"135 500 OFFCURVE",
"45 399 OFFCURVE",
"45 250 CURVE",
"45 101 OFFCURVE",
"136 0 OFFCURVE",
"260 0 CURVE SMOOTH",
"347 0 OFFCURVE",
"380 0 OFFCURVE",
"462 56 CURVE",
"408 119 LINE",
"363 87 OFFCURVE",
"330 80 OFFCURVE",
"260 80 CURVE SMOOTH",
"192 80 OFFCURVE",
"126 145 OFFCURVE",
"126 230 CURVE"
);
}
);
width = 520;
}
);
unicode = 0065;
},
{
glyphname = f;
lastChange = "2012-08-27 23:24:51 +0000";
layers = (
{
guideLines = (
{
angle = 90;
position = "{45, 800}";
},
{
angle = 90;
position = "{465, 800}";
},
{
angle = 90;
position = "{255, 800}";
},
{
angle = 0;
position = "{5, 250}";
}
);
layerId = "85308D4F-3C98-4E4B-A926-E3A24A251B96";
name = Regular;
paths = (
{
closed = 1;
nodes = (
"295 420 LINE",
"445 420 LINE",
"445 500 LINE",
"295 500 LINE",
"295 530 LINE",
"295 637 OFFCURVE",
"390 614 OFFCURVE",
"480 623 CURVE",
"437 700 LINE",
"309 700 OFFCURVE",
"215 668 OFFCURVE",
"215 530 CURVE",
"215 500 LINE",
"65 500 LINE",
"65 420 LINE",
"215 420 LINE",
"215 0 LINE",
"295 0 LINE"
);
}
);
width = 520;
}
);
unicode = 0066;
},
{
glyphname = g;
lastChange = "2012-09-12 00:00:23 +0000";
layers = (
{
anchors = (
{
name = top;
position = "{260, 500}";
}
);
guideLines = (
{
angle = 90;
position = "{50, 800}";
},
{
angle = 90;
position = "{470, 800}";
},
{
angle = 90;
position = "{260, 800}";
},
{
angle = 0;
position = "{10, 250}";
}
);
layerId = "85308D4F-3C98-4E4B-A926-E3A24A251B96";
name = Regular;
paths = (
{
closed = 0;
nodes = (
"470 250 LINE"
);
},
{
closed = 1;
nodes = (
"190 80 OFFCURVE",
"130 150 OFFCURVE",
"130 250 CURVE",
"130 350 OFFCURVE",
"190 420 OFFCURVE",
"260 420 CURVE SMOOTH",
"330 420 OFFCURVE",
"390 350 OFFCURVE",
"390 250 CURVE SMOOTH",
"390 150 OFFCURVE",
"330 80 OFFCURVE",
"260 80 CURVE SMOOTH"
);
},
{
closed = 1;
nodes = (
"390 0 LINE",
"390 -50 OFFCURVE",
"330 -100 OFFCURVE",
"260 -100 CURVE SMOOTH",
"210 -100 OFFCURVE",
"166 -85 OFFCURVE",
"144 -65 CURVE",
"89 -125 LINE",
"119 -164 OFFCURVE",
"165 -180 OFFCURVE",
"260 -180 CURVE SMOOTH",
"410 -180 OFFCURVE",
"470 -85 OFFCURVE",
"470 0 CURVE",
"470 500 LINE",
"390 500 LINE",
"390 452 LINE",
"356 483 OFFCURVE",
"311 500 OFFCURVE",
"260 500 CURVE SMOOTH",
"136 500 OFFCURVE",
"50 399 OFFCURVE",
"50 250 CURVE SMOOTH",
"50 101 OFFCURVE",
"136 0 OFFCURVE",
"260 0 CURVE SMOOTH",
"313 0 OFFCURVE",
"355 12 OFFCURVE",
"390 45 CURVE"
);
}
);
width = 520;
}
);
unicode = 0067;
},
{
glyphname = h;
lastChange = "2012-09-12 00:00:23 +0000";
layers = (
{
anchors = (
{
name = center;
position = "{260, 250}";
},
{
name = top;
position = "{260, 500}";
}
);
guideLines = (
{
angle = 90;
position = "{50, 800}";
},
{
angle = 90;
position = "{470, 800}";
},
{
angle = 90;
position = "{260, 800}";
},
{
angle = 0;
position = "{-40, 250}";
}
);
layerId = "85308D4F-3C98-4E4B-A926-E3A24A251B96";
name = Regular;
paths = (
{
closed = 0;
nodes = (
"50 250 LINE"
);
},
{
closed = 1;
nodes = (
"470 250 LINE",
"470 399 OFFCURVE",
"384 500 OFFCURVE",
"260 500 CURVE SMOOTH",
"209 500 OFFCURVE",
"164 483 OFFCURVE",
"130 452 CURVE",
"130 700 LINE",
"50 700 LINE",
"50 0 LINE",
"130 0 LINE",
"130 250 LINE",
"130 350 OFFCURVE",
"190 420 OFFCURVE",
"260 420 CURVE SMOOTH",
"330 420 OFFCURVE",
"390 350 OFFCURVE",
"390 250 CURVE",
"390 0 LINE",
"470 0 LINE"
);
}
);
width = 520;
}
);
unicode = 0068;
},
{
glyphname = i;
lastChange = "2012-08-27 23:25:27 +0000";
layers = (
{
guideLines = (
{
angle = 90;
position = "{260, 800}";
},
{
angle = 0;
position = "{-40, 250}";
}
);
layerId = "85308D4F-3C98-4E4B-A926-E3A24A251B96";
name = Regular;
paths = (
{
closed = 1;
nodes = (
"290 590 OFFCURVE",
"315 615 OFFCURVE",
"315 645 CURVE SMOOTH",
"315 675 OFFCURVE",
"290 700 OFFCURVE",
"260 700 CURVE SMOOTH",
"230 700 OFFCURVE",
"205 675 OFFCURVE",
"205 645 CURVE SMOOTH",
"205 615 OFFCURVE",
"230 590 OFFCURVE",
"260 590 CURVE SMOOTH"
);
},
{
closed = 1;
nodes = (
"220 0 LINE",
"300 0 LINE",
"300 500 LINE",
"220 500 LINE"
);
}
);
width = 520;
}
);
unicode = 0069;
},
{
glyphname = j;
lastChange = "2012-08-27 23:25:34 +0000";
layers = (
{
guideLines = (
{
angle = 0;
position = "{-40, 250}";
},
{
angle = 90;
position = "{260, 800}";
}
);
layerId = "85308D4F-3C98-4E4B-A926-E3A24A251B96";
name = Regular;
paths = (
{
closed = 1;
nodes = (
"220 20 LINE",
"220 -62 OFFCURVE",
"173 -100 OFFCURVE",
"50 -100 CURVE",
"50 -180 LINE",
"238 -180 OFFCURVE",
"300 -130 OFFCURVE",
"300 20 CURVE",
"300 500 LINE",
"220 500 LINE"
);
},
{
closed = 1;
nodes = (
"290 590 OFFCURVE",
"315 615 OFFCURVE",
"315 645 CURVE SMOOTH",
"315 675 OFFCURVE",
"290 700 OFFCURVE",
"260 700 CURVE SMOOTH",
"230 700 OFFCURVE",
"205 675 OFFCURVE",
"205 645 CURVE SMOOTH",
"205 615 OFFCURVE",
"230 590 OFFCURVE",
"260 590 CURVE SMOOTH"
);
}
);
width = 520;
}
);
unicode = 006A;
},
{
glyphname = k;
lastChange = "2012-09-12 00:00:23 +0000";
layers = (
{
anchors = (
{
name = bottom;
position = "{260, 0}";
}
);
guideLines = (
{
angle = 90;
position = "{50, 800}";
},
{
angle = 90;
position = "{470, 800}";
},
{
angle = 90;
position = "{260, 800}";
},
{
angle = 0;
position = "{10, 250}";
}
);
layerId = "85308D4F-3C98-4E4B-A926-E3A24A251B96";
name = Regular;
paths = (
{
closed = 1;
nodes = (
"50 0 LINE",
"130 0 LINE",
"130 190 LINE",
"169 223 LINE",
"420 0 LINE",
"470 50 LINE",
"221 266 LINE",
"470 450 LINE",
"420 500 LINE",
"130 290 LINE",
"130 700 LINE",
"50 700 LINE"
);
}
);
width = 520;
}
);
unicode = 006B;
},
{
glyphname = l;
lastChange = "2012-09-12 00:00:23 +0000";
layers = (
{
anchors = (
{
name = bottom;
position = "{260, 0}";
},
{
name = top;
position = "{260, 500}";
},
{
name = topright;
position = "{500, 500}";
}
);
guideLines = (
{
angle = 90;
position = "{50, 800}";
},
{
angle = 90;
position = "{470, 800}";
},
{
angle = 90;
position = "{260, 800}";
},
{
angle = 0;
position = "{10, 250}";
}
);
layerId = "85308D4F-3C98-4E4B-A926-E3A24A251B96";
name = Regular;
paths = (
{
closed = 1;
nodes = (
"220 0 LINE",
"300 0 LINE",
"300 700 LINE",
"220 700 LINE"
);
}
);
width = 520;
}
);
unicode = 006C;
},
{
glyphname = m;
lastChange = "2012-08-27 23:25:59 +0000";
layers = (
{
guideLines = (
{
angle = 90;
position = "{50, 800}";
},
{
angle = 90;
position = "{470, 800}";
},
{
angle = 0;
position = "{-40, 250}";
},
{
angle = 90;
position = "{260, 800}";
}
);
layerId = "85308D4F-3C98-4E4B-A926-E3A24A251B96";
name = Regular;
paths = (
{
closed = 1;
nodes = (
"50 0 LINE",
"130 0 LINE",
"130 250 LINE",
"130 355 OFFCURVE",
"140 410 OFFCURVE",
"175 410 CURVE",
"210 410 OFFCURVE",
"220 355 OFFCURVE",
"220 250 CURVE",
"220 0 LINE",
"300 0 LINE",
"300 250 LINE",
"300 355 OFFCURVE",
"310 410 OFFCURVE",
"345 410 CURVE",
"380 410 OFFCURVE",
"390 355 OFFCURVE",
"390 250 CURVE",
"390 0 LINE",
"470 0 LINE",
"470 250 LINE",
"470 355 OFFCURVE",
"465 500 OFFCURVE",
"345 500 CURVE",
"265 500 OFFCURVE",
"260 430 OFFCURVE",
"260 430 CURVE",
"260 430 OFFCURVE",
"255 500 OFFCURVE",
"175 500 CURVE",
"137 499 OFFCURVE",
"130 475 OFFCURVE",
"130 475 CURVE",
"130 500 LINE",
"50 500 LINE"
);
}
);
width = 520;
}
);
unicode = 006D;
},
{
glyphname = n;
lastChange = "2012-09-12 00:00:23 +0000";
layers = (
{
anchors = (
{
name = bottom;
position = "{260, 0}";
},
{
name = top;
position = "{260, 500}";
}
);
guideLines = (
{
angle = 0;
position = "{-40, 250}";
}
);
layerId = "85308D4F-3C98-4E4B-A926-E3A24A251B96";
name = Regular;
paths = (
{
closed = 1;
nodes = (
"50 0 LINE",
"130 0 LINE",
"130 250 LINE",
"130 385 OFFCURVE",
"205 420 OFFCURVE",
"260 420 CURVE",
"315 420 OFFCURVE",
"390 395 OFFCURVE",
"390 250 CURVE",
"390 0 LINE",
"470 0 LINE",
"470 250 LINE",
"470 395 OFFCURVE",
"400 500 OFFCURVE",
"260 500 CURVE",
"160 500 OFFCURVE",
"130 445 OFFCURVE",
"130 445 CURVE",
"130 500 LINE",
"50 500 LINE"
);
}
);
width = 520;
}
);
unicode = 006E;
},
{
glyphname = o;
lastChange = "2012-09-12 00:00:23 +0000";
layers = (
{
anchors = (
{
name = top;
position = "{260, 500}";
}
);
guideLines = (
{
angle = 90;
position = "{260, 800}";
},
{
angle = 0;
position = "{-40, 250}";
}
);
layerId = "85308D4F-3C98-4E4B-A926-E3A24A251B96";
name = Regular;
paths = (
{
closed = 1;
nodes = (
"384 0 OFFCURVE",
"475 101 OFFCURVE",
"475 250 CURVE SMOOTH",
"475 399 OFFCURVE",
"384 500 OFFCURVE",
"260 500 CURVE SMOOTH",
"136 500 OFFCURVE",
"45 399 OFFCURVE",
"45 250 CURVE SMOOTH",
"45 101 OFFCURVE",
"136 0 OFFCURVE",
"260 0 CURVE SMOOTH"
);
},
{
closed = 1;
nodes = (
"190 80 OFFCURVE",
"125 150 OFFCURVE",
"125 250 CURVE SMOOTH",
"125 350 OFFCURVE",
"190 420 OFFCURVE",
"260 420 CURVE SMOOTH",
"330 420 OFFCURVE",
"395 350 OFFCURVE",
"395 250 CURVE",
"395 150 OFFCURVE",
"330 80 OFFCURVE",
"260 80 CURVE SMOOTH"
);
}
);
width = 520;
}
);
unicode = 006F;
},
{
glyphname = p;
lastChange = "2012-08-27 23:26:11 +0000";
layers = (
{
guideLines = (
{
angle = 90;
position = "{50, 800}";
},
{
angle = 90;
position = "{470, 800}";
},
{
angle = 90;
position = "{260, 800}";
},
{
angle = 0;
position = "{10, 250}";
}
);
layerId = "85308D4F-3C98-4E4B-A926-E3A24A251B96";
name = Regular;
paths = (
{
closed = 0;
nodes = (
"50 250 LINE"
);
},
{
closed = 1;
nodes = (
"190 80 OFFCURVE",
"130 150 OFFCURVE",
"130 250 CURVE SMOOTH",
"130 350 OFFCURVE",
"190 420 OFFCURVE",
"260 420 CURVE SMOOTH",
"330 420 OFFCURVE",
"390 350 OFFCURVE",
"390 250 CURVE",
"390 150 OFFCURVE",
"330 80 OFFCURVE",
"260 80 CURVE SMOOTH"
);
},
{
closed = 1;
nodes = (
"165 12 OFFCURVE",
"207 0 OFFCURVE",
"260 0 CURVE SMOOTH",
"384 0 OFFCURVE",
"470 101 OFFCURVE",
"470 250 CURVE SMOOTH",
"470 399 OFFCURVE",
"384 500 OFFCURVE",
"260 500 CURVE SMOOTH",
"209 500 OFFCURVE",
"164 483 OFFCURVE",
"130 452 CURVE",
"130 500 LINE",
"50 500 LINE",
"50 -180 LINE",
"130 -180 LINE",
"130 45 LINE"
);
}
);
width = 520;
}
);
unicode = 0070;
},
{
glyphname = q;
lastChange = "2012-08-27 23:26:17 +0000";
layers = (
{
guideLines = (
{
angle = 90;
position = "{470, 800}";
},
{
angle = 90;
position = "{50, 800}";
},
{
angle = 90;
position = "{260, 800}";
},
{
angle = 0;
position = "{510, 250}";
}
);
layerId = "85308D4F-3C98-4E4B-A926-E3A24A251B96";
name = Regular;
paths = (
{
closed = 0;
nodes = (
"470 250 LINE"
);
},
{
closed = 1;
nodes = (
"190 80 OFFCURVE",
"130 150 OFFCURVE",
"130 250 CURVE",
"130 350 OFFCURVE",
"190 420 OFFCURVE",
"260 420 CURVE SMOOTH",
"330 420 OFFCURVE",
"390 350 OFFCURVE",
"390 250 CURVE SMOOTH",
"390 150 OFFCURVE",
"330 80 OFFCURVE",
"260 80 CURVE SMOOTH"
);
},
{
closed = 1;
nodes = (
"390 -65 LINE",
"390 -128 OFFCURVE",
"451 -180 OFFCURVE",
"530 -180 CURVE",
"530 -100 LINE",
"471 -100 OFFCURVE",
"470 -60 OFFCURVE",
"470 0 CURVE",
"470 500 LINE",
"390 500 LINE",
"390 452 LINE",
"356 483 OFFCURVE",
"311 500 OFFCURVE",
"260 500 CURVE SMOOTH",
"136 500 OFFCURVE",
"50 399 OFFCURVE",
"50 250 CURVE SMOOTH",
"50 101 OFFCURVE",
"136 0 OFFCURVE",
"260 0 CURVE SMOOTH",
"313 0 OFFCURVE",
"355 12 OFFCURVE",
"390 45 CURVE"
);
}
);
width = 520;
}
);
unicode = 0071;
},
{
glyphname = r;
lastChange = "2012-09-12 00:00:23 +0000";
layers = (
{
anchors = (
{
name = bottom;
position = "{260, 0}";
},
{
name = top;
position = "{260, 500}";
}
);
guideLines = (
{
angle = 90;
position = "{50, 800}";
},
{
angle = 90;
position = "{470, 800}";
},
{
angle = 0;
position = "{-40, 250}";
},
{
angle = 90;
position = "{260, 800}";
}
);
layerId = "85308D4F-3C98-4E4B-A926-E3A24A251B96";
name = Regular;
paths = (
{
closed = 1;
nodes = (
"50 0 LINE",
"130 0 LINE",
"130 340 LINE",
"290 480 OFFCURVE",
"355 435 OFFCURVE",
"419 365 CURVE",
"470 420 LINE",
"385 510 OFFCURVE",
"290 570 OFFCURVE",
"130 440 CURVE",
"130 500 LINE",
"50 500 LINE"
);
}
);
width = 520;
}
);
unicode = 0072;
},
{
glyphname = s;
lastChange = "2012-09-12 00:00:23 +0000";
layers = (
{
anchors = (
{
name = bottom;
position = "{260, 0}";
},
{
name = top;
position = "{260, 500}";
}
);
guideLines = (
{
angle = 90;
position = "{50, 800}";
},
{
angle = 90;
position = "{470, 800}";
},
{
angle = 90;
position = "{260, 800}";
},
{
angle = 0;
position = "{10, 250}";
}
);
layerId = "85308D4F-3C98-4E4B-A926-E3A24A251B96";
name = Regular;
paths = (
{
closed = 1;
nodes = (
"390 220 OFFCURVE",
"50 210 OFFCURVE",
"50 365 CURVE",
"50 452 OFFCURVE",
"160 500 OFFCURVE",
"260 500 CURVE SMOOTH",
"340 500 OFFCURVE",
"416 476 OFFCURVE",
"470 420 CURVE",
"423 373 LINE",
"340 455 OFFCURVE",
"130 435 OFFCURVE",
"130 365 CURVE SMOOTH",
"130 280 OFFCURVE",
"470 290 OFFCURVE",
"470 135 CURVE",
"470 44 OFFCURVE",
"360 0 OFFCURVE",
"260 0 CURVE SMOOTH",
"180 0 OFFCURVE",
"103 25 OFFCURVE",
"50 80 CURVE",
"107 127 LINE",
"180 35 OFFCURVE",
"390 65 OFFCURVE",
"390 135 CURVE"
);
}
);
width = 520;
}
);
unicode = 0073;
},
{
glyphname = t;
lastChange = "2012-09-12 00:00:23 +0000";
layers = (
{
anchors = (
{
name = bottom;
position = "{260, 0}";
},
{
name = center;
position = "{260, 250}";
}
);
guideLines = (
{
angle = 90;
position = "{50, 800}";
},
{
angle = 90;
position = "{470, 800}";
},
{
angle = 90;
position = "{260, 800}";
},
{
angle = 0;
position = "{10, 250}";
}
);
layerId = "85308D4F-3C98-4E4B-A926-E3A24A251B96";
name = Regular;
paths = (
{
closed = 1;
nodes = (
"190 700 LINE",
"190 500 LINE",
"50 500 LINE",
"50 420 LINE",
"190 420 LINE",
"190 250 LINE",
"190 22 OFFCURVE",
"319 0 OFFCURVE",
"427 0 CURVE",
"470 77 LINE",
"380 76 OFFCURVE",
"270 83 OFFCURVE",
"270 250 CURVE",
"270 420 LINE",
"410 420 LINE",
"410 500 LINE",
"270 500 LINE",
"270 700 LINE"
);
}
);
width = 520;
}
);
unicode = 0074;
},
{
glyphname = u;
lastChange = "2012-09-12 00:00:23 +0000";
layers = (
{
anchors = (
{
name = ogonek;
position = "{468, 10}";
},
{
name = top;
position = "{260, 500}";
}
);
guideLines = (
{
angle = 90;
position = "{50, 800}";
},
{
angle = 90;
position = "{470, 800}";
},
{
angle = 90;
position = "{260, 800}";
},
{
angle = 0;
position = "{10, 250}";
}
);
layerId = "85308D4F-3C98-4E4B-A926-E3A24A251B96";
name = Regular;
paths = (
{
closed = 1;
nodes = (
"470 500 LINE",
"390 500 LINE",
"390 250 LINE",
"390 115 OFFCURVE",
"315 80 OFFCURVE",
"260 80 CURVE",
"205 80 OFFCURVE",
"130 105 OFFCURVE",
"130 250 CURVE",
"130 500 LINE",
"50 500 LINE",
"50 250 LINE",
"50 105 OFFCURVE",
"120 0 OFFCURVE",
"260 0 CURVE",
"360 0 OFFCURVE",
"390 55 OFFCURVE",
"390 55 CURVE",
"390 0 LINE",
"470 0 LINE"
);
}
);
width = 520;
}
);
unicode = 0075;
},
{
glyphname = v;
lastChange = "2012-08-27 23:26:27 +0000";
layers = (
{
guideLines = (
{
angle = 90;
position = "{50, 800}";
},
{
angle = 90;
position = "{470, 800}";
},
{
angle = 90;
position = "{260, 800}";
},
{
angle = 0;
position = "{10, 250}";
}
);
layerId = "85308D4F-3C98-4E4B-A926-E3A24A251B96";
name = Regular;
paths = (
{
closed = 1;
nodes = (
"220 0 LINE",
"300 0 LINE",
"470 500 LINE",
"390 500 LINE",
"260 100 LINE",
"130 500 LINE",
"50 500 LINE"
);
}
);
width = 520;
}
);
unicode = 0076;
},
{
glyphname = w;
lastChange = "2012-09-12 00:00:23 +0000";
layers = (
{
anchors = (
{
name = top;
position = "{260, 500}";
}
);
guideLines = (
{
angle = 90;
position = "{50, 800}";
},
{
angle = 90;
position = "{470, 800}";
},
{
angle = 90;
position = "{260, 800}";
},
{
angle = 0;
position = "{10, 250}";
}
);
layerId = "85308D4F-3C98-4E4B-A926-E3A24A251B96";
name = Regular;
paths = (
{
closed = 1;
nodes = (
"125 0 LINE",
"205 0 LINE",
"260 310 LINE",
"315 0 LINE",
"395 0 LINE",
"490 500 LINE",
"410 500 LINE",
"355 190 LINE",
"300 500 LINE",
"220 500 LINE",
"165 190 LINE",
"110 500 LINE",
"30 500 LINE"
);
}
);
width = 520;
}
);
unicode = 0077;
},
{
glyphname = x;
lastChange = "2012-08-27 23:26:27 +0000";
layers = (
{
guideLines = (
{
angle = 90;
position = "{50, 800}";
},
{
angle = 90;
position = "{470, 800}";
},
{
angle = 90;
position = "{260, 800}";
},
{
angle = 0;
position = "{10, 250}";
}
);
layerId = "85308D4F-3C98-4E4B-A926-E3A24A251B96";
name = Regular;
paths = (
{
closed = 1;
nodes = (
"140 500 LINE",
"260 310 LINE",
"380 500 LINE",
"470 500 LINE",
"310 250 LINE",
"470 0 LINE",
"380 0 LINE",
"260 190 LINE",
"140 0 LINE",
"50 0 LINE",
"210 250 LINE",
"50 500 LINE"
);
}
);
width = 520;
}
);
unicode = 0078;
},
{
glyphname = y;
lastChange = "2012-09-12 00:00:23 +0000";
layers = (
{
anchors = (
{
name = top;
position = "{260, 500}";
}
);
guideLines = (
{
angle = 90;
position = "{50, 800}";
},
{
angle = 90;
position = "{470, 800}";
},
{
angle = 90;
position = "{260, 800}";
},
{
angle = 0;
position = "{10, 250}";
}
);
layerId = "85308D4F-3C98-4E4B-A926-E3A24A251B96";
name = Regular;
paths = (
{
closed = 1;
nodes = (
"220 0 LINE",
"220 -58 OFFCURVE",
"164 -100 OFFCURVE",
"70 -100 CURVE",
"35 -180 LINE",
"246 -180 OFFCURVE",
"268 -96 OFFCURVE",
"300 0 CURVE",
"470 500 LINE",
"390 500 LINE",
"260 100 LINE",
"130 500 LINE",
"50 500 LINE"
);
}
);
width = 520;
}
);
unicode = 0079;
},
{
glyphname = z;
lastChange = "2012-09-12 00:00:23 +0000";
layers = (
{
anchors = (
{
name = top;
position = "{260, 500}";
}
);
guideLines = (
{
angle = 90;
position = "{50, 800}";
},
{
angle = 90;
position = "{470, 800}";
},
{
angle = 90;
position = "{260, 800}";
},
{
angle = 0;
position = "{10, 250}";
}
);
layerId = "85308D4F-3C98-4E4B-A926-E3A24A251B96";
name = Regular;
paths = (
{
closed = 1;
nodes = (
"50 420 LINE",
"370 420 LINE",
"50 80 LINE",
"50 0 LINE",
"470 0 LINE",
"470 80 LINE",
"150 80 LINE",
"470 419 LINE",
"470 500 LINE",
"50 500 LINE"
);
}
);
width = 520;
}
);
unicode = 007A;
},
{
glyphname = zero;
lastChange = "2012-08-27 23:26:56 +0000";
layers = (
{
guideLines = (
{
angle = 90;
position = "{50, 800}";
},
{
angle = 90;
position = "{470, 800}";
},
{
angle = 90;
position = "{260, 800}";
},
{
angle = 0;
position = "{10, 350}";
}
);
layerId = "85308D4F-3C98-4E4B-A926-E3A24A251B96";
name = Regular;
paths = (
{
closed = 1;
nodes = (
"380 0 OFFCURVE",
"470 130 OFFCURVE",
"470 350 CURVE SMOOTH",
"470 570 OFFCURVE",
"380 700 OFFCURVE",
"260 700 CURVE SMOOTH",
"140 700 OFFCURVE",
"50 570 OFFCURVE",
"50 350 CURVE SMOOTH",
"50 130 OFFCURVE",
"140 0 OFFCURVE",
"260 0 CURVE SMOOTH"
);
},
{
closed = 1;
nodes = (
"190 80 OFFCURVE",
"130 220 OFFCURVE",
"130 350 CURVE SMOOTH",
"130 480 OFFCURVE",
"190 620 OFFCURVE",
"260 620 CURVE SMOOTH",
"330 620 OFFCURVE",
"390 480 OFFCURVE",
"390 350 CURVE SMOOTH",
"390 220 OFFCURVE",
"330 80 OFFCURVE",
"260 80 CURVE SMOOTH"
);
},
{
closed = 1;
nodes = (
"295 285 OFFCURVE",
"325 315 OFFCURVE",
"325 350 CURVE SMOOTH",
"325 385 OFFCURVE",
"295 415 OFFCURVE",
"260 415 CURVE SMOOTH",
"225 415 OFFCURVE",
"195 385 OFFCURVE",
"195 350 CURVE",
"195 315 OFFCURVE",
"225 285 OFFCURVE",
"260 285 CURVE SMOOTH"
);
}
);
width = 520;
}
);
unicode = 0030;
},
{
glyphname = one;
lastChange = "2012-08-27 23:26:56 +0000";
layers = (
{
guideLines = (
{
angle = 90;
position = "{50, 800}";
},
{
angle = 90;
position = "{470, 800}";
},
{
angle = 90;
position = "{260, 800}";
},
{
angle = 0;
position = "{10, 250}";
}
);
layerId = "85308D4F-3C98-4E4B-A926-E3A24A251B96";
name = Regular;
paths = (
{
closed = 1;
nodes = (
"300 0 LINE",
"220 0 LINE",
"220 600 LINE",
"220 600 OFFCURVE",
"201 571 OFFCURVE",
"155 544 CURVE",
"106 515 OFFCURVE",
"50 510 OFFCURVE",
"50 510 CURVE",
"50 600 LINE",
"50 600 OFFCURVE",
"86 595 OFFCURVE",
"134 624 CURVE",
"187 655 OFFCURVE",
"220 700 OFFCURVE",
"220 700 CURVE",
"300 700 LINE"
);
}
);
width = 520;
}
);
unicode = 0031;
},
{
glyphname = two;
lastChange = "2012-08-27 23:26:56 +0000";
layers = (
{
guideLines = (
{
angle = 90;
position = "{50, 800}";
},
{
angle = 90;
position = "{470, 800}";
},
{
angle = 90;
position = "{260, 800}";
},
{
angle = 0;
position = "{10, 350}";
}
);
layerId = "85308D4F-3C98-4E4B-A926-E3A24A251B96";
name = Regular;
paths = (
{
closed = 1;
nodes = (
"160 600 OFFCURVE",
"190 620 OFFCURVE",
"260 620 CURVE",
"330 620 OFFCURVE",
"390 590 OFFCURVE",
"390 500 CURVE",
"390 380 OFFCURVE",
"50 215 OFFCURVE",
"50 80 CURVE",
"50 0 LINE",
"470 0 LINE",
"470 80 LINE",
"140 80 LINE",
"140 205 OFFCURVE",
"470 330 OFFCURVE",
"470 500 CURVE",
"470 660 OFFCURVE",
"345 700 OFFCURVE",
"260 700 CURVE",
"175 700 OFFCURVE",
"110 660 OFFCURVE",
"50 600 CURVE",
"100 540 LINE"
);
}
);
width = 520;
}
);
unicode = 0032;
},
{
glyphname = three;
lastChange = "2012-08-27 23:26:56 +0000";
layers = (
{
guideLines = (
{
angle = 90;
position = "{50, 800}";
},
{
angle = 90;
position = "{470, 800}";
},
{
angle = 90;
position = "{260, 800}";
},
{
angle = 0;
position = "{10, 350}";
}
);
layerId = "85308D4F-3C98-4E4B-A926-E3A24A251B96";
name = Regular;
paths = (
{
closed = 1;
nodes = (
"470 620 LINE",
"470 700 LINE",
"80 700 LINE",
"80 620 LINE",
"360 620 LINE",
"160 440 LINE",
"160 350 LINE",
"192 375 OFFCURVE",
"225 380 OFFCURVE",
"260 380 CURVE SMOOTH",
"325 380 OFFCURVE",
"395 330 OFFCURVE",
"395 230 CURVE SMOOTH",
"395 130 OFFCURVE",
"325 80 OFFCURVE",
"260 80 CURVE SMOOTH",
"235 80 OFFCURVE",
"175 85 OFFCURVE",
"107 147 CURVE",
"50 90 LINE",
"135 0 OFFCURVE",
"220 0 OFFCURVE",
"260 0 CURVE SMOOTH",
"385 0 OFFCURVE",
"475 81 OFFCURVE",
"475 230 CURVE SMOOTH",
"475 379 OFFCURVE",
"361 455 OFFCURVE",
"280 455 CURVE"
);
}
);
width = 520;
}
);
unicode = 0033;
},
{
glyphname = four;
lastChange = "2012-08-27 23:26:56 +0000";
layers = (
{
guideLines = (
{
angle = 90;
position = "{50, 800}";
},
{
angle = 90;
position = "{470, 800}";
},
{
angle = 90;
position = "{260, 800}";
},
{
angle = 0;
position = "{10, 350}";
}
);
layerId = "85308D4F-3C98-4E4B-A926-E3A24A251B96";
name = Regular;
paths = (
{
closed = 1;
nodes = (
"50 270 LINE",
"290 700 LINE",
"370 700 LINE",
"370 270 LINE",
"470 270 LINE",
"470 190 LINE",
"370 190 LINE",
"370 0 LINE",
"290 0 LINE",
"290 190 LINE",
"50 190 LINE"
);
},
{
closed = 1;
nodes = (
"140 270 LINE",
"290 270 LINE",
"290 540 LINE"
);
}
);
width = 520;
}
);
unicode = 0034;
},
{
glyphname = five;
lastChange = "2012-08-27 23:26:56 +0000";
layers = (
{
guideLines = (
{
angle = 90;
position = "{50, 800}";
},
{
angle = 90;
position = "{470, 800}";
},
{
angle = 90;
position = "{260, 800}";
},
{
angle = 0;
position = "{10, 350}";
}
);
layerId = "85308D4F-3C98-4E4B-A926-E3A24A251B96";
name = Regular;
paths = (
{
closed = 1;
nodes = (
"130 620 LINE",
"470 620 LINE",
"470 700 LINE",
"50 700 LINE",
"50 620 LINE",
"50 380 LINE",
"107 323 LINE",
"175 385 OFFCURVE",
"235 390 OFFCURVE",
"260 390 CURVE SMOOTH",
"325 390 OFFCURVE",
"395 335 OFFCURVE",
"395 235 CURVE SMOOTH",
"395 135 OFFCURVE",
"325 80 OFFCURVE",
"260 80 CURVE SMOOTH",
"235 80 OFFCURVE",
"175 85 OFFCURVE",
"107 147 CURVE",
"50 90 LINE",
"135 0 OFFCURVE",
"220 0 OFFCURVE",
"260 0 CURVE SMOOTH",
"385 0 OFFCURVE",
"475 86 OFFCURVE",
"475 235 CURVE SMOOTH",
"475 384 OFFCURVE",
"385 470 OFFCURVE",
"260 470 CURVE SMOOTH",
"229 470 OFFCURVE",
"150 449 OFFCURVE",
"130 435 CURVE"
);
}
);
width = 520;
}
);
unicode = 0035;
},
{
glyphname = six;
lastChange = "2012-08-27 23:26:56 +0000";
layers = (
{
guideLines = (
{
angle = 90;
position = "{50, 800}";
},
{
angle = 90;
position = "{470, 800}";
},
{
angle = 90;
position = "{260, 800}";
},
{
angle = 0;
position = "{10, 350}";
}
);
layerId = "85308D4F-3C98-4E4B-A926-E3A24A251B96";
name = Regular;
paths = (
{
closed = 1;
nodes = (
"364 0 OFFCURVE",
"470 86 OFFCURVE",
"470 215 CURVE SMOOTH",
"470 344 OFFCURVE",
"384 430 OFFCURVE",
"260 430 CURVE SMOOTH",
"156 430 OFFCURVE",
"132 378 OFFCURVE",
"132 379 CURVE SMOOTH",
"150 614 OFFCURVE",
"288 659 OFFCURVE",
"397 601 CURVE",
"451 658 LINE",
"260 769 OFFCURVE",
"50 662 OFFCURVE",
"50 330 CURVE",
"50 215 LINE",
"50 86 OFFCURVE",
"156 0 OFFCURVE",
"260 0 CURVE SMOOTH"
);
},
{
closed = 1;
nodes = (
"200 80 OFFCURVE",
"130 125 OFFCURVE",
"130 215 CURVE SMOOTH",
"130 305 OFFCURVE",
"200 350 OFFCURVE",
"260 350 CURVE SMOOTH",
"320 350 OFFCURVE",
"390 305 OFFCURVE",
"390 215 CURVE",
"390 125 OFFCURVE",
"320 80 OFFCURVE",
"260 80 CURVE SMOOTH"
);
}
);
width = 520;
}
);
unicode = 0036;
},
{
glyphname = seven;
lastChange = "2012-08-27 23:26:56 +0000";
layers = (
{
guideLines = (
{
angle = 90;
position = "{50, 800}";
},
{
angle = 90;
position = "{470, 800}";
},
{
angle = 90;
position = "{260, 800}";
},
{
angle = 0;
position = "{10, 350}";
}
);
layerId = "85308D4F-3C98-4E4B-A926-E3A24A251B96";
name = Regular;
paths = (
{
closed = 1;
nodes = (
"140 0 LINE",
"50 0 LINE",
"340 620 LINE",
"50 620 LINE",
"50 700 LINE",
"470 700 LINE"
);
}
);
width = 520;
}
);
unicode = 0037;
},
{
glyphname = eight;
lastChange = "2012-08-27 23:26:56 +0000";
layers = (
{
guideLines = (
{
angle = 90;
position = "{50, 800}";
},
{
angle = 90;
position = "{470, 800}";
},
{
angle = 90;
position = "{260, 800}";
},
{
angle = 0;
position = "{10, 350}";
},
{
angle = 0;
position = "{10, 195}";
},
{
angle = 0;
position = "{10, 505}";
}
);
layerId = "85308D4F-3C98-4E4B-A926-E3A24A251B96";
name = Regular;
paths = (
{
closed = 0;
nodes = (
"260 310 LINE"
);
},
{
closed = 1;
nodes = (
"200 390 OFFCURVE",
"130 425 OFFCURVE",
"130 505 CURVE SMOOTH",
"130 585 OFFCURVE",
"200 620 OFFCURVE",
"260 620 CURVE SMOOTH",
"320 620 OFFCURVE",
"390 585 OFFCURVE",
"390 505 CURVE",
"390 425 OFFCURVE",
"320 390 OFFCURVE",
"260 390 CURVE SMOOTH"
);
},
{
closed = 1;
nodes = (
"200 80 OFFCURVE",
"130 115 OFFCURVE",
"130 195 CURVE SMOOTH",
"130 275 OFFCURVE",
"200 310 OFFCURVE",
"260 310 CURVE SMOOTH",
"320 310 OFFCURVE",
"390 275 OFFCURVE",
"390 195 CURVE",
"390 115 OFFCURVE",
"320 80 OFFCURVE",
"260 80 CURVE SMOOTH"
);
},
{
closed = 1;
nodes = (
"444 382 OFFCURVE",
"470 434 OFFCURVE",
"470 505 CURVE SMOOTH",
"470 634 OFFCURVE",
"364 700 OFFCURVE",
"260 700 CURVE SMOOTH",
"156 700 OFFCURVE",
"50 634 OFFCURVE",
"50 505 CURVE SMOOTH",
"50 435 OFFCURVE",
"77 383 OFFCURVE",
"120 350 CURVE",
"75 318 OFFCURVE",
"50 267 OFFCURVE",
"50 195 CURVE SMOOTH",
"50 66 OFFCURVE",
"156 0 OFFCURVE",
"260 0 CURVE SMOOTH",
"364 0 OFFCURVE",
"470 66 OFFCURVE",
"470 195 CURVE SMOOTH",
"470 269 OFFCURVE",
"448 318 OFFCURVE",
"400 350 CURVE"
);
},
{
closed = 0;
nodes = (
"260 390 LINE"
);
}
);
width = 520;
}
);
unicode = 0038;
},
{
glyphname = nine;
lastChange = "2012-08-27 23:26:56 +0000";
layers = (
{
guideLines = (
{
angle = 90;
position = "{50, 800}";
},
{
angle = 90;
position = "{470, 800}";
},
{
angle = 90;
position = "{260, 800}";
},
{
angle = 0;
position = "{10, 350}";
},
{
angle = 90;
position = "{50, 800}";
},
{
angle = 90;
position = "{470, 800}";
},
{
angle = 90;
position = "{260, 800}";
},
{
angle = 0;
position = "{10, 350}";
}
);
layerId = "85308D4F-3C98-4E4B-A926-E3A24A251B96";
name = Regular;
paths = (
{
closed = 1;
nodes = (
"156 700 OFFCURVE",
"50 614 OFFCURVE",
"50 485 CURVE SMOOTH",
"50 356 OFFCURVE",
"136 270 OFFCURVE",
"260 270 CURVE SMOOTH",
"364 270 OFFCURVE",
"388 322 OFFCURVE",
"388 321 CURVE SMOOTH",
"370 86 OFFCURVE",
"232 41 OFFCURVE",
"123 99 CURVE",
"69 42 LINE",
"260 -69 OFFCURVE",
"470 38 OFFCURVE",
"470 370 CURVE",
"470 485 LINE",
"470 614 OFFCURVE",
"364 700 OFFCURVE",
"260 700 CURVE SMOOTH"
);
},
{
closed = 1;
nodes = (
"320 620 OFFCURVE",
"390 575 OFFCURVE",
"390 485 CURVE SMOOTH",
"390 395 OFFCURVE",
"320 350 OFFCURVE",
"260 350 CURVE SMOOTH",
"200 350 OFFCURVE",
"130 395 OFFCURVE",
"130 485 CURVE",
"130 575 OFFCURVE",
"200 620 OFFCURVE",
"260 620 CURVE SMOOTH"
);
}
);
width = 520;
}
);
unicode = 0039;
},
{
glyphname = asterisk;
lastChange = "2012-08-27 23:27:14 +0000";
layers = (
{
guideLines = (
{
angle = 90;
position = "{50, 800}";
},
{
angle = 90;
position = "{470, 800}";
},
{
angle = 90;
position = "{260, 800}";
},
{
angle = 0;
position = "{10, 250}";
}
);
layerId = "85308D4F-3C98-4E4B-A926-E3A24A251B96";
name = Regular;
paths = (
{
closed = 1;
nodes = (
"300 600 LINE",
"300 430 LINE",
"420 530 LINE",
"470 470 LINE",
"330 350 LINE",
"470 230 LINE",
"420 170 LINE",
"300 270 LINE",
"300 100 LINE",
"220 100 LINE",
"220 270 LINE",
"100 170 LINE",
"50 230 LINE",
"190 350 LINE",
"50 470 LINE",
"100 530 LINE",
"220 430 LINE",
"220 600 LINE"
);
}
);
width = 520;
}
);
unicode = 002A;
},
{
glyphname = backslash;
lastChange = "2012-08-27 23:27:24 +0000";
layers = (
{
guideLines = (
{
angle = 90;
position = "{60, 800}";
},
{
angle = 90;
position = "{460, 800}";
}
);
layerId = "85308D4F-3C98-4E4B-A926-E3A24A251B96";
name = Regular;
paths = (
{
closed = 1;
nodes = (
"140 780 LINE",
"460 -80 LINE",
"380 -80 LINE",
"60 780 LINE"
);
}
);
width = 520;
}
);
unicode = 005C;
},
{
glyphname = colon;
lastChange = "2012-08-27 23:27:33 +0000";
layers = (
{
guideLines = (
{
angle = 90;
position = "{50, 800}";
},
{
angle = 90;
position = "{470, 800}";
},
{
angle = 90;
position = "{260, 800}";
},
{
angle = 0;
position = "{10, 350}";
}
);
layerId = "85308D4F-3C98-4E4B-A926-E3A24A251B96";
name = Regular;
paths = (
{
closed = 1;
nodes = (
"217 500 OFFCURVE",
"185 468 OFFCURVE",
"185 425 CURVE SMOOTH",
"185 382 OFFCURVE",
"217 350 OFFCURVE",
"260 350 CURVE SMOOTH",
"303 350 OFFCURVE",
"335 382 OFFCURVE",
"335 425 CURVE SMOOTH",
"335 468 OFFCURVE",
"303 500 OFFCURVE",
"260 500 CURVE SMOOTH"
);
},
{
closed = 1;
nodes = (
"217 150 OFFCURVE",
"185 118 OFFCURVE",
"185 75 CURVE SMOOTH",
"185 32 OFFCURVE",
"217 0 OFFCURVE",
"260 0 CURVE SMOOTH",
"303 0 OFFCURVE",
"335 32 OFFCURVE",
"335 75 CURVE SMOOTH",
"335 118 OFFCURVE",
"303 150 OFFCURVE",
"260 150 CURVE SMOOTH"
);
}
);
width = 520;
}
);
unicode = 003A;
},
{
glyphname = comma;
lastChange = "2012-09-12 00:55:05 +0000";
layers = (
{
guideLines = (
{
angle = 90;
position = "{50, 800}";
},
{
angle = 90;
position = "{470, 800}";
},
{
angle = 90;
position = "{260, 800}";
},
{
angle = 0;
position = "{10, 250}";
}
);
layerId = "85308D4F-3C98-4E4B-A926-E3A24A251B96";
name = Regular;
paths = (
{
closed = 1;
nodes = (
"217 150 OFFCURVE",
"185 118 OFFCURVE",
"185 75 CURVE SMOOTH",
"185 32 OFFCURVE",
"216 0 OFFCURVE",
"240 0 CURVE SMOOTH",
"240 0 OFFCURVE",
"236 -83 OFFCURVE",
"145 -150 CURVE SMOOTH",
"145 -150 OFFCURVE",
"335 -108 OFFCURVE",
"335 75 CURVE SMOOTH",
"335 118 OFFCURVE",
"303 150 OFFCURVE",
"260 150 CURVE SMOOTH"
);
}
);
width = 520;
}
);
unicode = 002C;
},
{
glyphname = exclam;
lastChange = "2012-08-27 23:27:42 +0000";
layers = (
{
layerId = "85308D4F-3C98-4E4B-A926-E3A24A251B96";
name = Regular;
paths = (
{
closed = 1;
nodes = (
"225 130 OFFCURVE",
"195 100 OFFCURVE",
"195 65 CURVE SMOOTH",
"195 30 OFFCURVE",
"225 0 OFFCURVE",
"260 0 CURVE SMOOTH",
"295 0 OFFCURVE",
"325 30 OFFCURVE",
"325 65 CURVE SMOOTH",
"325 100 OFFCURVE",
"295 130 OFFCURVE",
"260 130 CURVE SMOOTH"
);
},
{
closed = 1;
nodes = (
"300 200 LINE",
"330 700 LINE",
"190 700 LINE",
"220 200 LINE"
);
}
);
width = 520;
}
);
unicode = 0021;
},
{
glyphname = numbersign;
lastChange = "2012-08-27 23:27:50 +0000";
layers = (
{
guideLines = (
{
angle = 90;
position = "{50, 800}";
},
{
angle = 90;
position = "{470, 800}";
},
{
angle = 90;
position = "{260, 800}";
},
{
angle = 0;
position = "{10, 350}";
}
);
layerId = "85308D4F-3C98-4E4B-A926-E3A24A251B96";
name = Regular;
paths = (
{
closed = 1;
nodes = (
"210 670 LINE",
"210 500 LINE",
"310 500 LINE",
"310 670 LINE",
"390 670 LINE",
"390 500 LINE",
"470 500 LINE",
"470 420 LINE",
"390 420 LINE",
"390 280 LINE",
"470 280 LINE",
"470 200 LINE",
"390 200 LINE",
"390 30 LINE",
"310 30 LINE",
"310 200 LINE",
"210 200 LINE",
"210 30 LINE",
"130 30 LINE",
"130 200 LINE",
"50 200 LINE",
"50 280 LINE",
"130 280 LINE",
"130 420 LINE",
"50 420 LINE",
"50 500 LINE",
"130 500 LINE",
"130 670 LINE"
);
},
{
closed = 1;
nodes = (
"210 280 LINE",
"310 280 LINE",
"310 420 LINE",
"210 420 LINE"
);
}
);
width = 520;
}
);
unicode = 0023;
},
{
glyphname = period;
lastChange = "2012-08-27 23:27:55 +0000";
layers = (
{
layerId = "85308D4F-3C98-4E4B-A926-E3A24A251B96";
name = Regular;
paths = (
{
closed = 1;
nodes = (
"217 150 OFFCURVE",
"185 118 OFFCURVE",
"185 75 CURVE SMOOTH",
"185 32 OFFCURVE",
"217 0 OFFCURVE",
"260 0 CURVE SMOOTH",
"303 0 OFFCURVE",
"335 32 OFFCURVE",
"335 75 CURVE SMOOTH",
"335 118 OFFCURVE",
"303 150 OFFCURVE",
"260 150 CURVE SMOOTH"
);
}
);
width = 520;
}
);
unicode = 002E;
},
{
glyphname = question;
lastChange = "2012-08-27 23:28:00 +0000";
layers = (
{
guideLines = (
{
angle = 90;
position = "{50, 800}";
},
{
angle = 90;
position = "{470, 800}";
},
{
angle = 90;
position = "{260, 800}";
},
{
angle = 0;
position = "{10, 350}";
}
);
layerId = "85308D4F-3C98-4E4B-A926-E3A24A251B96";
name = Regular;
paths = (
{
closed = 1;
nodes = (
"300 310 LINE",
"382 310 OFFCURVE",
"475 356 OFFCURVE",
"475 505 CURVE SMOOTH",
"475 644 OFFCURVE",
"375 700 OFFCURVE",
"260 700 CURVE SMOOTH",
"220 700 OFFCURVE",
"135 700 OFFCURVE",
"50 610 CURVE",
"107 553 LINE",
"175 615 OFFCURVE",
"235 620 OFFCURVE",
"260 620 CURVE SMOOTH",
"315 620 OFFCURVE",
"395 595 OFFCURVE",
"395 505 CURVE SMOOTH",
"395 385 OFFCURVE",
"305 390 OFFCURVE",
"220 390 CURVE",
"220 200 LINE",
"300 200 LINE"
);
},
{
closed = 1;
nodes = (
"225 130 OFFCURVE",
"195 100 OFFCURVE",
"195 65 CURVE SMOOTH",
"195 30 OFFCURVE",
"225 0 OFFCURVE",
"260 0 CURVE SMOOTH",
"295 0 OFFCURVE",
"325 30 OFFCURVE",
"325 65 CURVE SMOOTH",
"325 100 OFFCURVE",
"295 130 OFFCURVE",
"260 130 CURVE SMOOTH"
);
}
);
width = 520;
}
);
unicode = 003F;
},
{
glyphname = quotedbl;
lastChange = "2012-08-27 23:28:07 +0000";
layers = (
{
guideLines = (
{
angle = 90;
position = "{50, 800}";
},
{
angle = 90;
position = "{470, 800}";
},
{
angle = 90;
position = "{260, 800}";
},
{
angle = 0;
position = "{10, 250}";
}
);
layerId = "85308D4F-3C98-4E4B-A926-E3A24A251B96";
name = Regular;
paths = (
{
closed = 1;
nodes = (
"220 780 LINE",
"180 500 LINE",
"130 500 LINE",
"90 780 LINE"
);
},
{
closed = 1;
nodes = (
"430 780 LINE",
"390 500 LINE",
"340 500 LINE",
"300 780 LINE"
);
}
);
width = 520;
}
);
unicode = 0022;
},
{
glyphname = quotesingle;
lastChange = "2012-08-27 23:28:14 +0000";
layers = (
{
guideLines = (
{
angle = 90;
position = "{50, 800}";
},
{
angle = 90;
position = "{470, 800}";
},
{
angle = 90;
position = "{260, 800}";
},
{
angle = 0;
position = "{10, 250}";
}
);
layerId = "85308D4F-3C98-4E4B-A926-E3A24A251B96";
name = Regular;
paths = (
{
closed = 1;
nodes = (
"325 780 LINE",
"285 500 LINE",
"235 500 LINE",
"195 780 LINE"
);
}
);
width = 520;
}
);
unicode = 0027;
},
{
glyphname = semicolon;
lastChange = "2012-09-12 00:58:26 +0000";
layers = (
{
layerId = "85308D4F-3C98-4E4B-A926-E3A24A251B96";
name = Regular;
paths = (
{
closed = 1;
nodes = (
"217 500 OFFCURVE",
"185 468 OFFCURVE",
"185 425 CURVE SMOOTH",
"185 382 OFFCURVE",
"217 350 OFFCURVE",
"260 350 CURVE SMOOTH",
"303 350 OFFCURVE",
"335 382 OFFCURVE",
"335 425 CURVE SMOOTH",
"335 468 OFFCURVE",
"303 500 OFFCURVE",
"260 500 CURVE SMOOTH"
);
},
{
closed = 1;
nodes = (
"217 150 OFFCURVE",
"185 118 OFFCURVE",
"185 75 CURVE SMOOTH",
"185 32 OFFCURVE",
"216 0 OFFCURVE",
"240 0 CURVE SMOOTH",
"240 0 OFFCURVE",
"236 -83 OFFCURVE",
"145 -150 CURVE SMOOTH",
"145 -150 OFFCURVE",
"335 -108 OFFCURVE",
"335 75 CURVE SMOOTH",
"335 118 OFFCURVE",
"303 150 OFFCURVE",
"260 150 CURVE SMOOTH"
);
}
);
width = 520;
}
);
unicode = 003B;
},
{
glyphname = slash;
lastChange = "2012-08-27 23:28:23 +0000";
layers = (
{
guideLines = (
{
angle = 90;
position = "{60, 800}";
},
{
angle = 90;
position = "{460, 800}";
}
);
layerId = "85308D4F-3C98-4E4B-A926-E3A24A251B96";
name = Regular;
paths = (
{
closed = 1;
nodes = (
"460 780 LINE",
"140 -80 LINE",
"60 -80 LINE",
"380 780 LINE"
);
}
);
width = 520;
}
);
unicode = 002F;
},
{
glyphname = underscore;
lastChange = "2012-08-27 23:28:27 +0000";
layers = (
{
layerId = "85308D4F-3C98-4E4B-A926-E3A24A251B96";
name = Regular;
paths = (
{
closed = 1;
nodes = (
"35 -180 LINE",
"485 -180 LINE",
"485 -100 LINE",
"35 -100 LINE"
);
}
);
width = 520;
}
);
unicode = 005F;
},
{
glyphname = braceleft;
lastChange = "2012-08-27 23:28:31 +0000";
layers = (
{
guideLines = (
{
angle = 90;
position = "{50, 800}";
},
{
angle = 90;
position = "{470, 800}";
},
{
angle = 90;
position = "{260, 800}";
},
{
angle = 0;
position = "{10, 350}";
}
);
layerId = "85308D4F-3C98-4E4B-A926-E3A24A251B96";
name = Regular;
paths = (
{
closed = 1;
nodes = (
"300 80 OFFCURVE",
"290 0 OFFCURVE",
"430 0 CURVE",
"430 -80 LINE",
"283 -80 OFFCURVE",
"222 -50 OFFCURVE",
"222 260 CURVE",
"222 290 OFFCURVE",
"195 310 OFFCURVE",
"170 310 CURVE",
"90 310 LINE",
"90 390 LINE",
"170 390 LINE",
"195 390 OFFCURVE",
"222 410 OFFCURVE",
"222 440 CURVE",
"222 750 OFFCURVE",
"288 780 OFFCURVE",
"430 780 CURVE",
"430 700 LINE",
"290 700 OFFCURVE",
"300 620 OFFCURVE",
"300 420 CURVE",
"300 390 OFFCURVE",
"280 350 OFFCURVE",
"240 350 CURVE",
"280 350 OFFCURVE",
"300 310 OFFCURVE",
"300 280 CURVE"
);
}
);
width = 520;
}
);
unicode = 007B;
},
{
glyphname = braceright;
lastChange = "2012-08-27 23:28:38 +0000";
layers = (
{
guideLines = (
{
angle = 90;
position = "{50, 800}";
},
{
angle = 90;
position = "{470, 800}";
},
{
angle = 90;
position = "{260, 800}";
},
{
angle = 0;
position = "{10, 350}";
}
);
layerId = "85308D4F-3C98-4E4B-A926-E3A24A251B96";
name = Regular;
paths = (
{
closed = 1;
nodes = (
"220 310 OFFCURVE",
"240 350 OFFCURVE",
"280 350 CURVE",
"240 350 OFFCURVE",
"220 390 OFFCURVE",
"220 420 CURVE",
"220 620 OFFCURVE",
"230 700 OFFCURVE",
"90 700 CURVE",
"90 780 LINE",
"232 780 OFFCURVE",
"298 750 OFFCURVE",
"298 440 CURVE",
"298 410 OFFCURVE",
"325 390 OFFCURVE",
"350 390 CURVE",
"430 390 LINE",
"430 310 LINE",
"350 310 LINE",
"325 310 OFFCURVE",
"298 290 OFFCURVE",
"298 260 CURVE",
"298 -50 OFFCURVE",
"237 -80 OFFCURVE",
"90 -80 CURVE",
"90 0 LINE",
"230 0 OFFCURVE",
"220 80 OFFCURVE",
"220 280 CURVE"
);
}
);
width = 520;
}
);
unicode = 007D;
},
{
glyphname = bracketleft;
lastChange = "2012-08-27 23:28:42 +0000";
layers = (
{
guideLines = (
{
angle = 90;
position = "{50, 800}";
},
{
angle = 90;
position = "{470, 800}";
},
{
angle = 90;
position = "{260, 800}";
},
{
angle = 0;
position = "{10, 350}";
}
);
layerId = "85308D4F-3C98-4E4B-A926-E3A24A251B96";
name = Regular;
paths = (
{
closed = 1;
nodes = (
"370 780 LINE",
"370 700 LINE",
"230 700 LINE",
"230 0 LINE",
"370 0 LINE",
"370 -80 LINE",
"150 -80 LINE",
"150 780 LINE"
);
}
);
width = 520;
}
);
unicode = 005B;
},
{
glyphname = bracketright;
lastChange = "2012-08-27 23:28:42 +0000";
layers = (
{
guideLines = (
{
angle = 90;
position = "{50, 800}";
},
{
angle = 90;
position = "{470, 800}";
},
{
angle = 90;
position = "{260, 800}";
},
{
angle = 0;
position = "{10, 350}";
}
);
layerId = "85308D4F-3C98-4E4B-A926-E3A24A251B96";
name = Regular;
paths = (
{
closed = 1;
nodes = (
"370 -80 LINE",
"150 -80 LINE",
"150 0 LINE",
"290 0 LINE",
"290 700 LINE",
"150 700 LINE",
"150 780 LINE",
"370 780 LINE"
);
}
);
width = 520;
}
);
unicode = 005D;
},
{
glyphname = parenleft;
lastChange = "2012-08-27 23:28:47 +0000";
layers = (
{
guideLines = (
{
angle = 90;
position = "{50, 800}";
},
{
angle = 90;
position = "{470, 800}";
},
{
angle = 90;
position = "{260, 800}";
},
{
angle = 0;
position = "{10, 350}";
}
);
layerId = "85308D4F-3C98-4E4B-A926-E3A24A251B96";
name = Regular;
paths = (
{
closed = 1;
nodes = (
"370 780 CURVE",
"370 700 LINE",
"290 700 OFFCURVE",
"230 500 OFFCURVE",
"230 350 CURVE",
"230 208 OFFCURVE",
"290 0 OFFCURVE",
"370 0 CURVE",
"370 -80 LINE",
"260 -80 OFFCURVE",
"150 80 OFFCURVE",
"150 350 CURVE",
"150 620 OFFCURVE",
"260 780 OFFCURVE"
);
}
);
width = 520;
}
);
unicode = 0028;
},
{
glyphname = parenright;
lastChange = "2012-08-27 23:28:47 +0000";
layers = (
{
guideLines = (
{
angle = 90;
position = "{50, 800}";
},
{
angle = 90;
position = "{470, 800}";
},
{
angle = 90;
position = "{260, 800}";
},
{
angle = 0;
position = "{10, 350}";
}
);
layerId = "85308D4F-3C98-4E4B-A926-E3A24A251B96";
name = Regular;
paths = (
{
closed = 1;
nodes = (
"370 620 OFFCURVE",
"370 350 CURVE",
"370 80 OFFCURVE",
"260 -80 OFFCURVE",
"150 -80 CURVE",
"150 0 LINE",
"230 0 OFFCURVE",
"290 200 OFFCURVE",
"290 350 CURVE",
"290 500 OFFCURVE",
"230 700 OFFCURVE",
"150 700 CURVE",
"150 780 LINE",
"260 780 OFFCURVE"
);
}
);
width = 520;
}
);
unicode = 0029;
},
{
glyphname = hyphen;
lastChange = "2012-08-27 23:28:52 +0000";
layers = (
{
guideLines = (
{
angle = 90;
position = "{50, 800}";
},
{
angle = 90;
position = "{470, 800}";
},
{
angle = 0;
position = "{-40, 300}";
},
{
angle = 90;
position = "{260, 800}";
},
{
angle = 0;
position = "{-40, 250}";
}
);
layerId = "85308D4F-3C98-4E4B-A926-E3A24A251B96";
name = Regular;
paths = (
{
closed = 1;
nodes = (
"50 260 LINE",
"470 260 LINE",
"470 340 LINE",
"50 340 LINE"
);
}
);
width = 520;
}
);
unicode = 002D;
},
{
glyphname = dollar;
lastChange = "2012-09-12 01:01:39 +0000";
layers = (
{
guideLines = (
{
angle = 90;
position = "{50, 800}";
},
{
angle = 90;
position = "{470, 800}";
},
{
angle = 90;
position = "{260, 800}";
},
{
angle = 0;
position = "{10, 350}";
}
);
layerId = "85308D4F-3C98-4E4B-A926-E3A24A251B96";
name = Regular;
paths = (
{
closed = 1;
nodes = (
"220 120 LINE",
"220 310 LINE",
"125 310 OFFCURVE",
"50 400 OFFCURVE",
"50 485 CURVE",
"50 570 OFFCURVE",
"125 660 OFFCURVE",
"220 660 CURVE",
"220 780 LINE",
"300 780 LINE",
"300 660 LINE",
"450 660 LINE",
"450 580 LINE",
"300 580 LINE",
"300 390 LINE",
"395 390 OFFCURVE",
"470 300 OFFCURVE",
"470 215 CURVE",
"470 130 OFFCURVE",
"395 40 OFFCURVE",
"300 40 CURVE",
"300 -80 LINE",
"220 -80 LINE",
"220 40 LINE",
"70 40 LINE",
"70 120 LINE"
);
},
{
closed = 1;
nodes = (
"160 580 OFFCURVE",
"130 530 OFFCURVE",
"130 485 CURVE",
"130 440 OFFCURVE",
"160 390 OFFCURVE",
"220 390 CURVE",
"220 580 LINE"
);
},
{
closed = 1;
nodes = (
"300 120 LINE",
"360 120 OFFCURVE",
"390 170 OFFCURVE",
"390 215 CURVE",
"390 260 OFFCURVE",
"360 310 OFFCURVE",
"300 310 CURVE"
);
}
);
width = 520;
}
);
unicode = 0024;
},
{
glyphname = asciitilde;
lastChange = "2012-08-28 01:02:25 +0000";
layers = (
{
guideLines = (
{
angle = 90;
position = "{50, 800}";
},
{
angle = 90;
position = "{470, 800}";
},
{
angle = 90;
position = "{260, 800}";
},
{
angle = 0;
position = "{0, 350}";
}
);
layerId = "85308D4F-3C98-4E4B-A926-E3A24A251B96";
name = Regular;
paths = (
{
closed = 1;
nodes = (
"70 430 OFFCURVE",
"120 450 OFFCURVE",
"180 450 CURVE",
"270 450 OFFCURVE",
"290 330 OFFCURVE",
"350 330 CURVE",
"390 330 OFFCURVE",
"410 370 OFFCURVE",
"430 430 CURVE",
"490 370 LINE",
"450 270 OFFCURVE",
"400 250 OFFCURVE",
"340 250 CURVE",
"250 250 OFFCURVE",
"230 370 OFFCURVE",
"170 370 CURVE",
"140 370 OFFCURVE",
"110 330 OFFCURVE",
"90 270 CURVE",
"30 330 LINE"
);
}
);
width = 520;
}
);
unicode = 007E;
},
{
glyphname = equal;
lastChange = "2012-08-27 23:29:02 +0000";
layers = (
{
guideLines = (
{
angle = 90;
position = "{50, 800}";
},
{
angle = 90;
position = "{470, 800}";
},
{
angle = 0;
position = "{-40, 300}";
},
{
angle = 90;
position = "{260, 800}";
},
{
angle = 0;
position = "{-40, 250}";
}
);
layerId = "85308D4F-3C98-4E4B-A926-E3A24A251B96";
name = Regular;
paths = (
{
closed = 1;
nodes = (
"50 390 LINE",
"470 390 LINE",
"470 470 LINE",
"50 470 LINE"
);
},
{
closed = 1;
nodes = (
"50 130 LINE",
"470 130 LINE",
"470 210 LINE",
"50 210 LINE"
);
}
);
width = 520;
}
);
unicode = 003D;
},
{
glyphname = greater;
lastChange = "2012-08-27 23:29:06 +0000";
layers = (
{
layerId = "85308D4F-3C98-4E4B-A926-E3A24A251B96";
name = Regular;
paths = (
{
closed = 1;
nodes = (
"470 390 LINE",
"470 310 LINE",
"50 0 LINE",
"50 80 LINE",
"400 350 LINE",
"50 620 LINE",
"50 700 LINE"
);
}
);
width = 520;
}
);
unicode = 003E;
},
{
glyphname = less;
lastChange = "2012-08-27 23:29:06 +0000";
layers = (
{
guideLines = (
{
angle = 90;
position = "{50, 800}";
},
{
angle = 90;
position = "{470, 800}";
},
{
angle = 90;
position = "{260, 800}";
},
{
angle = 0;
position = "{10, 350}";
}
);
layerId = "85308D4F-3C98-4E4B-A926-E3A24A251B96";
name = Regular;
paths = (
{
closed = 1;
nodes = (
"470 620 LINE",
"120 350 LINE",
"470 80 LINE",
"470 0 LINE",
"50 310 LINE",
"50 390 LINE",
"470 700 LINE"
);
}
);
width = 520;
}
);
unicode = 003C;
},
{
glyphname = percent;
lastChange = "2012-08-27 23:29:11 +0000";
layers = (
{
guideLines = (
{
angle = 90;
position = "{50, 800}";
},
{
angle = 90;
position = "{470, 800}";
},
{
angle = 90;
position = "{260, 800}";
},
{
angle = 0;
position = "{10, 350}";
}
);
layerId = "85308D4F-3C98-4E4B-A926-E3A24A251B96";
name = Regular;
paths = (
{
closed = 1;
nodes = (
"460 610 LINE",
"140 90 LINE",
"60 90 LINE",
"380 610 LINE"
);
},
{
closed = 1;
nodes = (
"352 240 OFFCURVE",
"320 208 OFFCURVE",
"320 165 CURVE SMOOTH",
"320 122 OFFCURVE",
"352 90 OFFCURVE",
"395 90 CURVE SMOOTH",
"438 90 OFFCURVE",
"470 122 OFFCURVE",
"470 165 CURVE SMOOTH",
"470 208 OFFCURVE",
"438 240 OFFCURVE",
"395 240 CURVE SMOOTH"
);
},
{
closed = 1;
nodes = (
"82 610 OFFCURVE",
"50 578 OFFCURVE",
"50 535 CURVE SMOOTH",
"50 492 OFFCURVE",
"82 460 OFFCURVE",
"125 460 CURVE SMOOTH",
"168 460 OFFCURVE",
"200 492 OFFCURVE",
"200 535 CURVE SMOOTH",
"200 578 OFFCURVE",
"168 610 OFFCURVE",
"125 610 CURVE SMOOTH"
);
}
);
width = 520;
}
);
unicode = 0025;
},
{
glyphname = plus;
lastChange = "2012-08-27 23:29:11 +0000";
layers = (
{
guideLines = (
{
angle = 90;
position = "{50, 800}";
},
{
angle = 90;
position = "{470, 800}";
},
{
angle = 90;
position = "{260, 800}";
},
{
angle = 0;
position = "{10, 250}";
},
{
angle = 0;
position = "{10, 350}";
}
);
layerId = "85308D4F-3C98-4E4B-A926-E3A24A251B96";
name = Regular;
paths = (
{
closed = 1;
nodes = (
"300 560 LINE",
"300 390 LINE",
"470 390 LINE",
"470 310 LINE",
"300 310 LINE",
"300 140 LINE",
"220 140 LINE",
"220 310 LINE",
"50 310 LINE",
"50 390 LINE",
"220 390 LINE",
"220 560 LINE"
);
}
);
width = 520;
}
);
unicode = 002B;
},
{
glyphname = ampersand;
lastChange = "2012-08-28 02:24:23 +0000";
layers = (
{
guideLines = (
{
angle = 90;
position = "{50, 800}";
},
{
angle = 90;
position = "{470, 800}";
},
{
angle = 90;
position = "{260, 800}";
},
{
angle = 0;
position = "{0, 350}";
},
{
angle = 50;
position = "{140, 410}";
},
{
angle = 50;
position = "{196, 354}";
},
{
angle = -50;
position = "{130, 410}";
},
{
angle = -50;
position = "{186, 476}";
},
{
angle = 50;
position = "{460, 202}";
},
{
angle = 50;
position = "{404, 258}";
}
);
layerId = "85308D4F-3C98-4E4B-A926-E3A24A251B96";
name = Regular;
paths = (
{
closed = 1;
nodes = (
"163 511 OFFCURVE",
"130 535 OFFCURVE",
"130 565 CURVE SMOOTH",
"130 605 OFFCURVE",
"155 620 OFFCURVE",
"186 620 CURVE SMOOTH",
"226 620 OFFCURVE",
"240 599 OFFCURVE",
"240 569 CURVE",
"240 540 OFFCURVE",
"223 517 OFFCURVE",
"187 475 CURVE"
);
},
{
closed = 1;
nodes = (
"150 80 OFFCURVE",
"115 125 OFFCURVE",
"115 185 CURVE SMOOTH",
"115 238 OFFCURVE",
"150 292 OFFCURVE",
"183 337 CURVE",
"333 171 LINE",
"292 125 OFFCURVE",
"270 80 OFFCURVE",
"210 80 CURVE SMOOTH"
);
},
{
closed = 1;
nodes = (
"289 473 OFFCURVE",
"321 505 OFFCURVE",
"321 576 CURVE SMOOTH",
"321 645 OFFCURVE",
"270 700 OFFCURVE",
"186 700 CURVE SMOOTH",
"102 700 OFFCURVE",
"50 654 OFFCURVE",
"50 565 CURVE SMOOTH",
"50 495 OFFCURVE",
"95 458 OFFCURVE",
"135 403 CURVE",
"96 350 OFFCURVE",
"35 277 OFFCURVE",
"35 185 CURVE SMOOTH",
"35 76 OFFCURVE",
"96 0 OFFCURVE",
"210 0 CURVE SMOOTH",
"310 0 OFFCURVE",
"325 39 OFFCURVE",
"385 107 CURVE",
"461 16 LINE",
"519 79 LINE",
"440 174 LINE",
"490 238 LINE",
"436 296 LINE",
"388 236 LINE",
"246 411 LINE"
);
}
);
width = 520;
}
);
unicode = 0026;
},
{
glyphname = at;
lastChange = "2012-08-27 23:29:15 +0000";
layers = (
{
guideLines = (
{
angle = 90;
position = "{50, 800}";
},
{
angle = 90;
position = "{470, 800}";
},
{
angle = 90;
position = "{260, 800}";
},
{
angle = 0;
position = "{10, 350}";
}
);
layerId = "85308D4F-3C98-4E4B-A926-E3A24A251B96";
name = Regular;
paths = (
{
closed = 1;
nodes = (
"280 0 LINE",
"120 0 OFFCURVE",
"35 110 OFFCURVE",
"35 350 CURVE SMOOTH",
"35 590 OFFCURVE",
"121 700 OFFCURVE",
"260 700 CURVE SMOOTH",
"420 700 OFFCURVE",
"485 610 OFFCURVE",
"485 430 CURVE SMOOTH",
"485 210 OFFCURVE",
"438 170 OFFCURVE",
"330 170 CURVE",
"224 170 OFFCURVE",
"200 257 OFFCURVE",
"200 350 CURVE",
"200 452 OFFCURVE",
"250 500 OFFCURVE",
"330 500 CURVE",
"330 420 LINE",
"306 420 OFFCURVE",
"280 411 OFFCURVE",
"280 350 CURVE",
"280 301 OFFCURVE",
"286 250 OFFCURVE",
"330 250 CURVE",
"386 250 OFFCURVE",
"405 270 OFFCURVE",
"405 430 CURVE SMOOTH",
"405 550 OFFCURVE",
"370 620 OFFCURVE",
"260 620 CURVE SMOOTH",
"170 620 OFFCURVE",
"115 520 OFFCURVE",
"115 350 CURVE SMOOTH",
"115 190 OFFCURVE",
"180 80 OFFCURVE",
"280 80 CURVE",
"470 80 LINE",
"470 0 LINE"
);
}
);
width = 520;
}
);
unicode = 0040;
},
{
glyphname = bar;
lastChange = "2012-08-28 00:44:15 +0000";
layers = (
{
guideLines = (
{
angle = 90;
position = "{50, 800}";
},
{
angle = 90;
position = "{470, 800}";
},
{
angle = 90;
position = "{260, 800}";
},
{
angle = 0;
position = "{0, 350}";
}
);
layerId = "85308D4F-3C98-4E4B-A926-E3A24A251B96";
name = Regular;
paths = (
{
closed = 1;
nodes = (
"300 780 LINE",
"300 -80 LINE",
"220 -80 LINE",
"220 780 LINE"
);
}
);
width = 520;
}
);
unicode = 007C;
},
{
glyphname = asciicircum;
lastChange = "2012-08-27 23:29:19 +0000";
layers = (
{
guideLines = (
{
angle = 90;
position = "{50, 800}";
},
{
angle = 90;
position = "{470, 800}";
},
{
angle = 0;
position = "{-37, 300}";
},
{
angle = 90;
position = "{260, 800}";
}
);
layerId = "85308D4F-3C98-4E4B-A926-E3A24A251B96";
name = Regular;
paths = (
{
closed = 1;
nodes = (
"220 700 LINE",
"300 700 LINE",
"470 300 LINE",
"390 300 LINE",
"260 620 LINE",
"130 300 LINE",
"50 300 LINE"
);
}
);
width = 520;
}
);
unicode = 005E;
},
